<svg height="30" viewBox="0 0 36 30" width="36" xmlns="http://www.w3.org/2000/svg"><g fill="none" fill-rule="evenodd"><rect fill="#54c9d3" fill-rule="nonzero" height="30" rx="4" width="36"/><g fill-rule="evenodd"><path d="m6 3h24v24h-24z"/><path d="m9.27377561 1.00663902c.12108293-.07906829.2483561-.14931219.38142439-.20800975.21077561-.09276585.30639512-.33888293.21358537-.54961464-.09294147-.21077561-.33897074-.30639512-.54970244-.21349756-.36961464.16279025-.69870732.39002927-.98894634.64892195-3.4180683-1.03666829-6.55665366-.59356097-7.08892683 1.03372683-.25581952.78256098-.45785854 1.50602927.03771219 2.26343415-.65686829 1.16200976-.49833658 2.31638049-.30797561 3.70066829.01475122.1079561.02994146.21744878.04469268.32852195.04003903.29827317-.22091707.75845854-.47335609 1.20345366-.37958049.66859025-.77171708 1.3600537-.29256586 1.6866.8189122.5581756.96128781 1.6567024 1.09900976 2.7196683.03261951.252439.0665561.513439.10883415.767239.07296585.4377951.44227317.6506342 1.12921463.6506342.30560488 0 .6317561-.0377122.94745854-.0742391.27057073-.0312146.52599512-.0608048.73066829-.0608048.11432195 0 .20366341.0091756.27307317.0279658.82527805.223639 1.54633171 1.8924586 1.80706829 2.8918098.02102927.0811756.08345854.1449658.16410732.1678829.02129268.0060585.04306829.0090439.06458049.0090439.06010244 0 .1188439-.0228732.16336097-.0654585l4.23026342-4.0371805c.0655902-.0624732.0896049-.1569073.0621659-.2431317-.3736098-1.1686391.4026292-2.3092244 1.0875951-3.3159073.2988439-.43924395.5811805-.854122.7742195-1.2627659.2643366-.55927317.3936293-1.16565366.4173366-1.7765561.3676829-.36324878.5472-.86176097.7223268-1.39763414.5136585-1.57017074-1.5818488-3.68503903-4.75722439-4.89477074z" fill="#fff" transform="translate(11 6)"/></g></g></svg>