<svg height="30" viewBox="0 0 36 30" width="36" xmlns="http://www.w3.org/2000/svg"><g fill="none" fill-rule="evenodd"><rect fill="#7976ff" fill-rule="nonzero" height="30" rx="4" width="36"/><g fill-rule="evenodd"><path d="m7 3h24v24h-24z"/><path d="m17.6357083.492875c-.0336666-.08520833-.11125-.14516667-.2022083-.15629167-.0907083-.01108333-.180625.02841667-.2338333.103-.315875.442875-.730375.5905-1.2105417.76145834-.3871667.13791666-.7875417.28041666-1.22025.59108333-.6119583.43933333-.891875 1.03820833-.7522917 1.60583333l-.0149166.019125c-.2555417-.37070833-.5335834-.71358333-.827-1.01975-1.3727917-1.43241666-3.29100003-2.29358333-5.26295837-2.362625-.086875-.00304166-.17516666-.00458333-.26241666-.00458333-2.20191667 0-4.3095.98433333-5.78229167 2.70054167-1.46508333 1.70733333-2.11445833 3.929875-1.78154167 6.09775.02783334.18120833.06266667.36429166.103625.54429166.5415 2.38341667 1.92454167 4.19654167 3.79454167 4.97429167.46095833.19175.92591667.2889167 1.38179167.2889167 1.132625 0 2.12191666-.6057917 2.71429166-1.6620417.22516667-.4019167.37045834-.8175417.43166667-1.2354583.03608333-.2466667.01141667-.493125-.0125-.7319584-.024625-.2458333-.047875-.4781666-.01066667-.7120833.08529167-.53620833.45983334-.856375 1.00195834-.856375.15420833 0 .31179166.025375.46916666.0755-.18425.33791667-.35158333.6605833-.49779166.9596667-.309875.6338333-.523625 1.15875-.6355 1.56-.06895834.2474583-.25216667.9050833.19458333 1.2151666.141875.0984584.32175.1332084.50895833.098375.16870834-.0313333.68204167-.1267083 2.14074997-1.7873333.3915-.445625.813375-.9613333 1.2543334-1.5330833 1.132-.38125003 2.0129166-1.3300417 2.2459583-2.4202917.0583333-.27254167.0826667-.56420833.0722917-.86716667.4238333-.655.7955833-1.26616666 1.1696666-1.92316666.0071667-.01266667.01425-.02616667.02125-.04.5429584-.14870834 1.0105834-.57125 1.2850834-1.162125.40075-.862375.3712083-1.97070834-.0832084-3.12066667zm-6.1196666 4.08354167c-.196375.311875-.5339167.49808333-.9030417.49808333-.2004167 0-.3964583-.05670833-.566875-.16404167-.24091667-.15175-.40845833-.38820833-.4715-.66583333s-.014375-.56325.13741667-.80420833c.19641666-.311875.53400003-.49808334.90312503-.49808334.2004583 0 .3964583.05670834.5668333.16408334.2409167.15166666.4084167.388125.4715.66579166.0630417.27766667.01425.56325-.1374583.80420834zm1.383625 1.931375c.5389166-.79404167 1.1088333-1.58333334 1.6501666-2.28541667.08775.07925.185875.15666667.2921667.23041667.176125.12220833.3603333.21670833.5485.28141666-.4570417.78158334-.9484583 1.55591667-1.5434583 2.43229167-.977625 1.44045833-1.994125 2.7785-2.8622917 3.7676667-.4849167.5525-.9092917.9790833-1.23629167 1.2432916.12620834-.40375.36741667-.957875.70312497-1.6144166.6002917-1.1740417 1.4697084-2.61420837 2.4480834-4.05525003zm-9.4619167-.00683334c-.20045833 0-.3965-.05670833-.56695833-.16408333-.24091667-.15170833-.408375-.38808333-.47145834-.66579167-.06308333-.27766666-.01425-.56329166.13754167-.80425.19629167-.31183333.533875-.49804166.90295833-.49804166.2005 0 .39654167.05670833.56695834.16408333.49733333.31325.64716666.97270833.334125 1.46995833-.1965.31191667-.534125.498125-.90316667.498125zm-1.11741667 2.34729167c.196375-.31191667.53391667-.498125.90304167-.498125.20041667 0 .39641667.05675.56691667.16408333.24091666.15170834.408375.388125.47145833.66579167.063125.27758333.01429167.56316667-.13754167.80420833-.19629166.31179167-.533875.49804167-.90295833.49804167-.20045833 0-.39654167-.0567083-.56704167-.1640833-.24091666-.15175-.40833333-.38812503-.471375-.6657917-.063-.27758333-.014125-.56320833.1375-.804125zm3.41383334-6.331c.196375-.311875.53395833-.49808333.90304166-.49808333.200375 0 .39641667.05670833.56683334.16404166.497375.31316667.64720833.97266667.334125 1.47-.19645834.31191667-.53404167.498125-.903125.498125-.20041667 0-.39645834-.05670833-.566875-.16408333-.240875-.15166667-.40829167-.38808333-.471375-.66579167-.06316667-.277625-.01433334-.56320833.137375-.80420833z" fill="#fff" transform="translate(10 8)"/></g></g></svg>