<?xml version="1.0" encoding="UTF-8"?>
<svg width="24px" height="20px" viewBox="0 0 24 20" version="1.1" xmlns="http://www.w3.org/2000/svg" xmlns:xlink="http://www.w3.org/1999/xlink">
    <!-- Generator: sketchtool 61 (101010) - https://sketch.com -->
    <title>72E3BF32-FB55-4507-A949-4A533C367B95</title>
    <desc>Created with sketchtool.</desc>
    <g id="Asset-Artboard-Page" stroke="none" stroke-width="1" fill="none" fill-rule="evenodd">
        <g id="Icons/Map/ArtWork">
            <rect id="Rectangle" fill="#7976FF" fill-rule="nonzero" x="0" y="0" width="24" height="20" rx="4"></rect>
            <g id="Group" transform="translate(4.666667, 2.000000)">
                <rect id="Rectangle" x="0" y="0" width="16" height="16"></rect>
                <g id="paint-board-and-brush" transform="translate(2.000000, 3.333333)" fill="#FFFFFF">
                    <path d="M11.7571391,0.328583341 C11.7346946,0.271777784 11.6829724,0.231805561 11.6223335,0.224388894 C11.5618613,0.217000005 11.5019169,0.243333339 11.4664446,0.293055562 C11.2558613,0.58830557 10.979528,0.686722239 10.6594169,0.800694464 C10.4013057,0.892638911 10.1343891,0.987638914 9.84591684,1.19475003 C9.43794461,1.48763893 9.2513335,1.88688894 9.34438905,2.26530561 L9.33444461,2.27805561 C9.16408349,2.03091672 8.97872238,1.80233338 8.78311126,1.59822226 C7.8679168,0.643277794 6.58911123,0.0691666677 5.27447231,0.0231388887 C5.21655565,0.0211111109 5.15769453,0.0200833331 5.09952787,0.0200833331 C3.6315834,0.0200833331 2.22652782,0.676305572 1.24466669,1.82044449 C0.267944449,2.95866674 -0.164972225,4.44036123 0.0569722232,5.88561126 C0.0755277791,6.00641682 0.0987500017,6.12847238 0.126055558,6.24847238 C0.487055564,7.83741687 1.40908336,9.0461669 2.65575005,9.56466691 C2.96305561,9.69250025 3.27302784,9.75727803 3.57694451,9.75727803 C4.33202785,9.75727803 4.99155564,9.35341691 5.38647232,8.64925022 C5.53658343,8.38130577 5.63344454,8.10422243 5.6742501,7.82561131 C5.69830566,7.66116686 5.68186121,7.4968613 5.66591677,7.33763908 C5.6495001,7.17375019 5.6340001,7.01886129 5.65880565,6.86291684 C5.71566677,6.50544461 5.96536122,6.29200016 6.32677789,6.29200016 C6.42958345,6.29200016 6.534639,6.30891683 6.63955567,6.3423335 C6.51672234,6.56761128 6.40516678,6.7827224 6.30769455,6.98211129 C6.10111122,7.40466686 5.95861122,7.75461131 5.88402788,8.02211132 C5.83805566,8.18708354 5.71591677,8.62550022 6.01375011,8.83222245 C6.10833344,8.89786134 6.22825011,8.92102801 6.35305567,8.89780579 C6.46552789,8.8769169 6.80775012,8.81333356 7.78022236,7.7062502 C8.04122236,7.40916686 8.32247237,7.06536129 8.6164446,6.68419462 C9.37111128,6.43002794 9.95838906,5.79750015 10.1137502,5.0706668 C10.1526391,4.88897235 10.1688613,4.6945279 10.1619446,4.49255567 C10.4445002,4.05588899 10.6923335,3.64844454 10.9417224,3.21044453 C10.9465002,3.20200008 10.9512224,3.19300008 10.9558891,3.18377786 C11.3178613,3.08463897 11.6296113,2.80294452 11.8126113,2.40902784 C12.079778,1.83411116 12.0600835,1.09522225 11.7571391,0.328583341 Z M7.67736098,3.05094441 C7.54644432,3.25886108 7.32141654,3.38299996 7.07533321,3.38299996 C6.9417221,3.38299996 6.81102766,3.34519441 6.69741655,3.27363885 C6.53680544,3.17247219 6.425111,3.0148333 6.38308322,2.82974997 C6.34105545,2.64466664 6.37349989,2.45424998 6.47469433,2.29361109 C6.60563878,2.08569443 6.83069433,1.96155555 7.07677766,1.96155555 C7.21041654,1.96155555 7.34108321,1.9993611 7.45466654,2.07094443 C7.61527765,2.17205554 7.72694431,2.32969443 7.76899987,2.51480553 C7.81102765,2.69991664 7.77849987,2.89030553 7.67736098,3.05094441 Z M8.59977771,4.33852763 C8.95905548,3.80916652 9.33899993,3.28297207 9.69988882,2.81491652 C9.75838882,2.86774985 9.82380549,2.91936096 9.8946666,2.96852763 C10.0120833,3.04999985 10.1348888,3.11299985 10.2603333,3.15613874 C9.95563882,3.6771943 9.62802771,4.19341652 9.23136104,4.77766653 C8.57961104,5.73797209 7.90194437,6.62999987 7.32316659,7.28944431 C6.99988881,7.65777765 6.71697214,7.94216654 6.49897214,8.11830543 C6.58311103,7.84913876 6.74391659,7.47972209 6.96772215,7.04202765 C7.36791659,6.2593332 7.9475277,5.29922208 8.59977771,4.33852763 Z M2.29183329,4.33397204 C2.1581944,4.33397204 2.02749995,4.29616649 1.91386106,4.22458316 C1.75324995,4.12344427 1.64161105,3.96586094 1.5995555,3.78072205 C1.55749994,3.59561095 1.5900555,3.40519428 1.69124994,3.2445554 C1.82211106,3.03666651 2.04716662,2.91252763 2.29322218,2.91252763 C2.42688885,2.91252763 2.55758329,2.95033318 2.67119441,3.02191651 C3.00274997,3.23074984 3.10263886,3.67038872 2.89394441,4.00188872 C2.76294441,4.20983316 2.53786107,4.33397204 2.29183329,4.33397204 Z M1.54688895,5.89883311 C1.67780562,5.69088868 1.90283341,5.5667498 2.14891675,5.5667498 C2.28252786,5.5667498 2.41319453,5.60458313 2.5268612,5.67613868 C2.68747231,5.77727756 2.79911121,5.93488867 2.84116676,6.11999977 C2.8832501,6.30505532 2.85069454,6.4954442 2.74947232,6.65613863 C2.6186112,6.86399974 2.39355564,6.9881664 2.14750008,6.9881664 C2.01386119,6.9881664 1.88313896,6.95036084 1.76947229,6.87877751 C1.60886118,6.77761085 1.49725006,6.62002753 1.45522228,6.43491642 C1.41322228,6.24986088 1.44580562,6.05944422 1.54688895,5.89883311 Z M3.82277783,1.67816667 C3.9536945,1.47025001 4.17875006,1.34611112 4.42480562,1.34611112 C4.55838896,1.34611112 4.6890834,1.38391668 4.80269452,1.45547223 C5.13427785,1.66425001 5.23416674,2.10391666 5.02544452,2.43547221 C4.89447229,2.64341665 4.66941674,2.76755554 4.42336118,2.76755554 C4.28975006,2.76755554 4.15905562,2.72974999 4.0454445,2.65816665 C3.88486117,2.55705554 3.77325006,2.39944444 3.7311945,2.21430555 C3.68908339,2.02922222 3.72163894,1.83883334 3.82277783,1.67816667 Z" id="Shape"></path>
                </g>
            </g>
        </g>
    </g>
</svg>