<?xml version="1.0" encoding="UTF-8"?>
<svg width="24px" height="20px" viewBox="0 0 24 20" version="1.1" xmlns="http://www.w3.org/2000/svg" xmlns:xlink="http://www.w3.org/1999/xlink">
    <!-- Generator: sketchtool 61 (101010) - https://sketch.com -->
    <title>E5C27407-FF2E-482A-8E77-31D8737F6C79</title>
    <desc>Created with sketchtool.</desc>
    <g id="Asset-Artboard-Page" stroke="none" stroke-width="1" fill="none" fill-rule="evenodd">
        <g id="Icons/Map/Auction">
            <rect id="Rectangle" fill="#72D354" fill-rule="nonzero" x="0" y="0" width="24" height="20" rx="4"></rect>
            <g id="Group" transform="translate(4.000000, 2.000000)">
                <rect id="Rectangle" x="0" y="0" width="16" height="16"></rect>
                <g id="fame-star" transform="translate(2.000000, 2.000000)" fill="#FFFFFF" fill-rule="nonzero">
                    <path d="M11.9663749,4.36275583 C11.9119276,4.19524941 11.7671564,4.07312087 11.5928942,4.04782524 L8.01124908,3.52738307 L6.40944965,0.281892033 C6.33149593,0.123917738 6.1706219,0.0239691511 5.99447794,0.0239691511 C5.81833399,0.0239691511 5.65745996,0.123917738 5.57953708,0.281892033 L3.97779935,3.52735223 L0.396185076,4.04782524 C0.221892023,4.07312087 0.0770899716,4.19524941 0.0226735211,4.36275583 C-0.0317737778,4.53026226 0.013634961,4.71414915 0.139742926,4.8371106 L2.73143435,7.36337284 L2.11961946,10.9305503 C2.08981998,11.1041338 2.16120301,11.2795683 2.30369144,11.3831569 C2.44617986,11.4866531 2.63515672,11.5002881 2.79100247,11.4183857 L5.99450879,9.7341595 L9.19801511,11.4183857 C9.26572719,11.4539539 9.33963978,11.4715374 9.41330559,11.4715374 C9.50921304,11.4715374 9.60475031,11.4417688 9.68532615,11.3832186 C9.82781457,11.2796916 9.89922845,11.1041955 9.86942897,10.930612 L9.25761408,7.36340368 L11.8493055,4.83714144 C11.9754135,4.71411831 12.0208222,4.53023141 11.9663749,4.36275583 Z" id="Path"></path>
                </g>
            </g>
        </g>
    </g>
</svg>