<svg height="30" viewBox="0 0 36 30" width="36" xmlns="http://www.w3.org/2000/svg"><g fill="none" fill-rule="evenodd"><rect fill="#72d354" fill-rule="nonzero" height="30" rx="4" width="36"/><g fill-rule="evenodd"><path d="m6 3h24v24h-24z"/><path d="m17.949563 6.54413368c-.081671-.25125964-.2988278-.43445245-.5602211-.47239589l-5.3724679-.78066324-2.40269919-4.8682365c-.11693059-.23696144-.35824165-.38688432-.62245759-.38688432-.26421593 0-.50552699.14992288-.62241131.38688432l-2.40260668 4.86819023-5.37242159.78070951c-.26143959.03794344-.47864268.22113625-.56026736.47239589-.08167095.25125964-.01355784.52708997.17560412.71153213l3.88753727 3.78939329-.91772236 5.3507661c-.04469923.2603753.06237532.523527.27610797.67891.21373264.1552442.49719794.1756967.73096658.0528432l4.80525964-2.5263393 4.8052596 2.5263393c.1015682.0533522.2124371.0797275.3229358.0797275.1438612 0 .2871671-.0446529.4080308-.1324781.2137327-.1552905.3208535-.4185347.2761543-.6789101l-.9177224-5.3508123 3.8875373-3.78939332c.1891619-.1845347.257275-.46036504.1756041-.7115784z" fill="#fff" fill-rule="nonzero" transform="translate(9 6)"/></g></g></svg>