<svg height="6" viewBox="0 0 10 6" width="10" xmlns="http://www.w3.org/2000/svg"><g fill="none" fill-rule="evenodd" transform="translate(-1 -3)"><path d="m0 0h12v12h-12z" transform="matrix(-1 0 0 1 12 0)"/><path d="m6.01587097 8.55030645c-.13316129 0-.26579032-.05051613-.36740323-.15183871l-3.96454839-3.96454839c-.20293548-.20317741-.20293548-.53187096 0-.73451612.20293549-.20317742.53162904-.20317742.73451613 0l3.59743549 3.59714516 3.59743548-3.59714516c.20293549-.20317742.53162905-.20317742.73451615 0 .2029355.20293548.2029355.53133871 0 .73451612l-3.96479034 3.96454839c-.10132258.10132258-.23424194.15183871-.36716129.15183871z" fill="#7976ff" fill-rule="nonzero" transform="matrix(-1 0 0 1 12.031742 0)"/></g></svg>