<?xml version="1.0" encoding="UTF-8"?>
<svg width="24px" height="20px" viewBox="0 0 24 20" version="1.1" xmlns="http://www.w3.org/2000/svg" xmlns:xlink="http://www.w3.org/1999/xlink">
    <!-- Generator: sketchtool 61 (101010) - https://sketch.com -->
    <title>C1191C19-38EA-48FD-835B-6E1B9ADE800D</title>
    <desc>Created with sketchtool.</desc>
    <g id="Asset-Artboard-Page" stroke="none" stroke-width="1" fill="none" fill-rule="evenodd">
        <g id="Icons/Map/Exhibiton">
            <rect id="Rectangle" fill="#CB76FF" fill-rule="nonzero" x="0" y="0" width="24" height="20" rx="4"></rect>
            <g id="Group" transform="translate(4.000000, 2.000000)">
                <rect id="Rectangle" x="0" y="0" width="16" height="16"></rect>
                <g id="drawing-board-icon" transform="translate(3.333333, 2.000000)" fill="#FFFFFF">
                    <path d="M3.58566267,0.000319612607 L3.66142376,0.00668280904 L4.22911384,0.1306925 C4.30439714,0.147138022 4.370063,0.192813569 4.41167075,0.257665872 C4.45330755,0.322547231 4.46742861,0.401288155 4.45098309,0.476571452 L4.45098309,0.476571452 L4.26828091,1.31293953 L5.02895889,1.31293953 L4.86502668,0.464135616 C4.85038261,0.388474595 4.86645041,0.310111395 4.90962717,0.246276041 C4.95286203,0.182498798 5.01960295,0.138392259 5.09526397,0.123777246 L5.09526397,0.123777246 L5.66585962,0.013656175 C5.8235158,-0.0166779669 5.97582572,0.0863244594 6.00624703,0.243864419 L6.00624703,0.243864419 L6.21265866,1.31296859 L8.72199524,1.31296859 C8.88244076,1.31296859 9.0125812,1.44305092 9.0125812,1.6035255 L9.0125812,1.6035255 L9.0125812,8.13672679 C9.0125812,8.29720137 8.88246982,8.42728371 8.7220243,8.42728371 L8.7220243,8.42728371 L7.58623736,8.42728371 L8.20207272,11.6170175 C8.20826158,11.6406689 8.21151582,11.6653952 8.21151582,11.6909352 C8.21151582,11.8513807 8.08137538,11.9814921 7.92095891,11.9814921 L7.92095891,11.9814921 L7.32848433,11.9814921 C7.18924946,11.9814921 7.06959813,11.8827318 7.04321556,11.7460248 L7.04321556,11.7460248 L6.81942864,10.5868189 L2.24272157,10.5868189 L1.98796128,11.7529691 C1.95884748,11.8863928 1.84067798,11.9814921 1.70411624,11.9814921 L1.70411624,11.9814921 L1.1093172,11.9814921 C1.02133657,11.9814921 0.93815013,11.9415986 0.88300243,11.8731434 C0.82785473,11.8046592 0.806702187,11.714848 0.825501219,11.6289594 L0.825501219,11.6289594 L1.52475546,8.42731276 L0.295845039,8.42731276 C0.135428573,8.42731276 0.00528813588,8.29723043 0.00528813588,8.13675585 L0.00528813588,8.13675585 L0.00528813588,1.60349645 C0.00528813588,1.44302186 0.135428573,1.31293953 0.295845039,1.31293953 L0.295845039,1.31293953 L3.07874095,1.31293953 L3.31557388,0.228552069 C3.33199035,0.153268773 3.37769495,0.0876029099 3.44254725,0.0459951596 C3.50742861,0.00438740942 3.58619858,-0.00976271234 3.66142376,0.00668280904 Z M6.40247935,8.4273126 L2.71438263,8.4273126 L2.49652307,9.42462014 L6.59500235,9.42462014 L6.40247935,8.4273126 Z M8.14088123,2.18463921 L0.876958859,2.18463921 L0.876958859,7.5556414 L8.14088123,7.5556414 L8.14088123,2.18463921 Z M4.36980148,3.14716703 C4.42268284,3.13484741 4.4783826,3.14429051 4.52440681,3.17337526 C4.5703148,3.20243095 4.60279906,3.24865855 4.61442134,3.30177236 L4.61442134,3.30177236 L4.63025669,3.37403386 C4.7063826,3.34024209 4.7829734,3.30694427 4.85912837,3.27521545 C4.90936566,3.2542663 4.96593708,3.25435347 5.01617437,3.2754479 C5.0663245,3.29654233 5.10598551,3.33687163 5.12620827,3.38742853 L5.12620827,3.38742853 L5.23234871,3.65279415 C5.5373463,3.54331231 5.84606301,3.47023725 6.15068287,3.43539948 C6.2057434,3.42906534 6.26092016,3.44553991 6.30360297,3.48087163 C6.34628578,3.51620335 6.37261023,3.56742853 6.37670709,3.62269246 L6.37670709,3.62269246 L6.39597101,3.88744791 C6.4038451,3.9959128 6.32501701,4.0913898 6.21701701,4.1041743 C6.0438451,4.12471668 5.86733177,4.16071668 5.6915739,4.21133169 L5.6915739,4.21133169 L5.77903153,4.48233411 C6.00072645,4.4199806 6.1845618,4.37715252 6.30313808,4.35158351 C6.35700733,4.33996123 6.41320103,4.35071184 6.4589928,4.38127842 C6.50475552,4.41187407 6.53619377,4.45972879 6.54607271,4.51388859 L6.54607271,4.51388859 L6.59384026,4.77547698 C6.61348191,4.88318642 6.54435842,4.98714768 6.43740442,5.01065373 C6.34599522,5.03073122 6.20609207,5.06344792 6.03844074,5.10892008 L6.03844074,5.10892008 L6.05697827,5.16970458 C6.08766108,5.27058594 6.03605817,5.37820822 5.93825672,5.41754962 C5.71795647,5.50619854 5.16659568,5.76470701 4.80746735,6.24953026 C4.7438935,6.33527361 4.62485233,6.35732688 4.53480875,6.3 L4.53480875,6.3 L4.31061504,6.1573075 C4.26322521,6.12706053 4.23042133,6.0786828 4.21999034,6.0235351 C4.21231964,5.98311864 4.21717194,5.94165617 4.2333269,5.90455205 L4.2333269,5.90455205 L4.19020826,5.9382276 C4.10635353,6.00525907 3.98487169,5.99561259 3.9126683,5.91620338 L3.9126683,5.91620338 L3.82898791,5.82418401 C3.60589832,6.01231961 3.4033511,6.21292009 3.22640194,6.42116223 C3.18627603,6.46840678 3.12897821,6.49287167 3.07130267,6.49287167 C3.02678935,6.49287167 2.98198547,6.47834383 2.94456174,6.44847458 L2.94456174,6.44847458 L2.73716222,6.28303148 C2.69418886,6.24871671 2.66696368,6.19853753 2.66155932,6.14385472 C2.65621307,6.08914285 2.67323971,6.03460532 2.70874576,5.99264891 C2.92186925,5.74079418 3.16576272,5.5001259 3.43432447,5.27657141 L3.43432447,5.27657141 L3.31833415,5.17136076 C3.27687168,5.13379175 3.25275545,5.08079417 3.25165134,5.02486197 L3.25165134,5.02486197 L3.25179662,5.0112639 C3.18090073,5.07512831 3.11346247,5.14006778 3.04974334,5.20599514 C3.03289104,5.22441645 3.01644552,5.24222759 3.00043584,5.25934139 C2.96318644,5.29914769 2.91155448,5.32236318 2.85707506,5.32375785 C2.8016368,5.32494914 2.74983051,5.30463921 2.71060532,5.26677965 L2.71060532,5.26677965 L2.51872154,5.08157867 C2.43820822,5.00382565 2.43565132,4.87560289 2.51299757,4.79468279 L2.51299757,4.79468279 L2.56492009,4.74069731 C2.71237772,4.58800966 2.87601937,4.44081353 3.05337531,4.30000966 C3.01409201,4.31790796 2.97483777,4.33589343 2.93572881,4.35446002 C2.90757385,4.36779658 2.87793705,4.37413072 2.84870702,4.37413072 C2.77374334,4.37413072 2.70171428,4.33249392 2.6662954,4.26092975 L2.6662954,4.26092975 L2.54859079,4.02322515 C2.52441646,3.97438253 2.52084261,3.91789827 2.5386828,3.86641159 C2.55646488,3.81489585 2.59426634,3.77273604 2.64345762,3.74931716 C3.37696853,3.40024209 3.95137048,3.24415492 4.36980148,3.14716703 Z" id="Combined-Shape"></path>
                </g>
            </g>
        </g>
    </g>
</svg>