<svg height="30" viewBox="0 0 36 30" width="36" xmlns="http://www.w3.org/2000/svg"><g fill="none" fill-rule="evenodd"><rect fill="#cb76ff" fill-rule="nonzero" height="30" rx="4" width="36"/><path d="m6 3h24v24h-24z"/><path d="m5.40691889.00005448.0852167.00996973.85153511.18601453c.11292494.02466828.21142373.0931816.27383535.19046005.06245521.09732203.08363681.21543341.05896853.32835835l-.27405327 1.25455206h1.14101695l-.24589831-1.27320581c-.0219661-.11349153.00213559-.23103632.06690073-.32678935.0648523-.09566586.16496368-.16182566.2784552-.18374818l.85589347-.1651816c.23648426-.04550121.46494915.10900242.51058111.34531235l.30961743 1.60365617h3.76400481c.2406683 0 .435879.19512349.435879.43583536v9.79980146c0 .2407119-.1951671.4358353-.4358354.4358353h-1.7036804l.9237531 4.7846005c.0092833.035477.0141646.0725666.0141646.1108765 0 .2406683-.1952106.4358354-.4358353.4358354h-.8887119c-.2088523 0-.3883293-.1481404-.4279032-.353201l-.3356803-1.7388087h-6.86506058l-.38214043 1.7492252c-.0436707.2001356-.22092494.3427845-.42576756.3427845h-.89219854c-.13197095 0-.25675061-.0598402-.33947216-.162523-.08272155-.1027264-.11445036-.2374431-.08625181-.366276l1.04888135-4.8024698h-1.84336562c-.24062469 0-.43583535-.1951235-.43583535-.4358353v-9.79988865c0-.24071186.19521066-.43583535.43583535-.43583535h4.17434383l.35524939-1.62658111c.0246247-.11292494.0931816-.21142373.19046005-.27383535.09732204-.06241163.215477-.08363681.32831477-.05896853zm4.19680024 12.64091402h-5.53214528l-.32678935 1.4959613h6.14771913zm2.60760287-9.36400966h-10.89588374v8.05650366h10.89588374zm-5.65661982 1.44379177c.07932203-.01847942.16287167-.00431477.23190799.03931234.06886198.04358354.11758838.11292494.13502179.19259565l.02375303.10839225c.11418886-.05068765.22907506-.10063439.3433075-.14822761.07535594-.03142372.16021308-.03129297.23556901.00034867.07522518.03164165.13471671.0921356.16505085.16797095l.15921065.39804842c.45749637-.16422276.92057143-.27383535 1.37750121-.32609201.0825908-.00950121.16535594.01521066.22938015.06820824.06402421.05299757.10351089.12983535.10965617.21273123l.02889589.39713317c.01181113.16269734-.106431.30591284-.268431.32508959-.25975787.03081356-.52452784.08481356-.78816465.16073608l.13118645.40650363c.33254237-.09353027.6082954-.1577724.7861598-.19612591.08080388-.01743341.16509443-.0013075.23378208.04454238.06864407.04589346.11580146.11767554.13061986.19891525l.07165133.39238257c.02946247.16156416-.07422276.31750605-.23465375.35276513-.1371138.03011622-.34696853.07919128-.59844552.14739952l.02780629.09117675c.04602422.15132203-.03138014.31275545-.17808232.37176756-.33045037.13297336-1.15749153.52073607-1.69618402 1.24797094-.09536078.12861501-.27392252.16169491-.40898789.0757046l-.33629056-.21403874c-.07108475-.04537046-.12029056-.11793705-.13593705-.2006586-.01150605-.06062469-.0042276-.1228184.02000484-.17847457-.02200968.01677966-.04358353.03364649-.06467796.05051331-.12578208.10054722-.30800484.08607749-.41630993-.03303632l-.12552058-.13802905c-.33463438.28220339-.63845521.58310412-.90387893.89546731-.06018887.07086683-.1461356.10756417-.23264891.10756417-.06676998 0-.13397579-.02179177-.19011138-.06659565l-.31109928-.24816464c-.06446005-.05147216-.10529782-.12674092-.11340436-.20876514-.00801937-.08206779.01752058-.16387409.07077966-.22680871.31968523-.37778209.68552543-.73878451 1.08836804-1.07411623l-.17398547-.15781598c-.0621937-.05635351-.09836804-.13584988-.10002421-.21974818l.00021792-.0203971c-.10634383.09579661-.20750122.19320581-.30307991.29209686l-.07396126.08001937c-.05587409.05970944-.13332203.09453268-.21504116.09662469-.08315738.00178693-.16086683-.02867796-.2197046-.08546731l-.28782567-.27780145c-.12076997-.11662954-.12460532-.30896368-.00858595-.43034383.02562712-.0267167.05155932-.0537385.07788378-.08097821.22118644-.22903147.46664891-.44982566.7326828-.66103147-.05892494.02684746-.11780629.05382566-.17646973.08167554-.04223245.02000485-.08668765.02950606-.13053269.02950606-.11244552 0-.2204891-.06245521-.27361743-.16980146l-.1765569-.3565569c-.0362615-.07326392-.04162228-.15799031-.01486199-.23522034.02667313-.0772736.08337531-.14051331.15716223-.17564164 1.10026634-.52361259 1.96186925-.75774334 2.58951574-.90322518z" fill="#fff" transform="translate(11 6)"/></g></svg>