<svg height="18" viewBox="0 0 18 18" width="18" xmlns="http://www.w3.org/2000/svg"><g fill="none" fill-rule="evenodd" transform="translate(-3 -3)"><path d="m0 0h24v24h-24z"/><path d="m8.14477024 15.7825208c1.33585996 0 2.42259516 1.0867352 2.42259516 2.422477 0 1.3360175-1.0867352 2.4227527-2.42259516 2.4227527-1.154183 0-2.12239539-.8112435-2.36440139-1.8935963l-2.25147607-.0002242c-.29213567 0-.52889278-.2369147-.52889278-.5289322 0-.2919781.23675711-.5288928.52889278-.5288928l2.25147607-.0001657c.242006-1.082175 1.21021839-1.8934185 2.36440139-1.8934185zm0 1.0578249c-.7525733 0-1.36480963.6120788-1.36480963 1.3646521s.61223633 1.3649278 1.36480963 1.3649278 1.36480963-.6123545 1.36480963-1.3649278-.61223633-1.3646521-1.36480963-1.3646521zm12.30884906.8357987c.2921356 0 .5288927.2369147.5288927.5288928s-.2367571.5288928-.5288927.5288928h-8.4966696c-.2921357 0-.5288928-.2369147-.5288928-.5288928s.2367571-.5288928.5288928-.5288928zm-4.6158775-8.28472646c1.154183 0 2.1223954.81124346 2.3644014 1.89341856l2.2514761.0001657c.2921356 0 .5288927.2369146.5288927.5288928 0 .2919781-.2367571.5288927-.5288927.5288927l-2.2514742.0001658c-.2419987 1.082175-1.2101863 1.8934185-2.3644033 1.8934185-1.3358993 0-2.4225952-1.0867352-2.4225952-2.422477s1.0867352-2.42247706 2.4225952-2.42247706zm0 1.05782496c-.7525733 0-1.3648096.6120788-1.3648096 1.3646521s.6122363 1.364652 1.3648096 1.364652 1.3648096-.6120787 1.3648096-1.364652-.6122363-1.3646521-1.3648096-1.3646521zm-3.8121794.8357593c.2921356 0 .5288927.2369146.5288927.5288928 0 .2919781-.2367571.5288927-.5288927.5288927h-8.49666962c-.29213567 0-.52889278-.2369146-.52889278-.5288927 0-.2919782.23675711-.5288928.52889278-.5288928zm-3.28907662-8.2850022c1.33585992 0 2.42259522 1.08673523 2.42259522 2.42275274 0 1.33578118-1.0867353 2.42247702-2.42259522 2.42247702-1.15418301 0-2.1223954-.8112435-2.3644014-1.89341852l-2.8431916-.00012634c-.29213567 0-.52889278-.23691466-.52889278-.52889278s.23675711-.52889278.52889278-.52889278l2.84341589-.0013051c.24237939-1.08185143 1.21035033-1.89259424 2.36417711-1.89259424zm0 1.05782495c-.75257331 0-1.36480963.61235448-1.36480963 1.36492779 0 .7525733.61223632 1.36465207 1.36480963 1.36465207.7525733 0 1.36480962-.61207877 1.36480962-1.36465207 0-.75257331-.61223632-1.36492779-1.36480962-1.36492779zm11.71709412.83607439c.2921356 0 .5288927.23691466.5288927.52889278s-.2367177.52889278-.5288533.52889278h-7.9048359c-.2921357 0-.5288928-.23691466-.5288928-.52889278s.2367571-.52889278.5288928-.52889278z" fill="#7976ff" fill-rule="nonzero"/></g></svg>