<svg height="30" viewBox="0 0 36 30" width="36" xmlns="http://www.w3.org/2000/svg"><g fill="none" fill-rule="evenodd"><rect fill="#ffb876" fill-rule="nonzero" height="30" rx="4" width="36"/><g fill-rule="evenodd"><path d="m6 3h24v24h-24z"/><path d="m17.2736308 4.62198462c.3823384 0 .6923077-.30996924.6923077-.6923077v-.87793846c0-.38233846-.3099693-.69230769-.6923077-.69230769h-1.6670308v-1.66712308c0-.38233846-.3099692-.69230769-.6923077-.69230769h-.8779846c-.3823385 0-.6923077.30996923-.6923077.69230769v1.66707693h-8.72201538v-1.66707693c0-.38233846-.30996924-.69230769-.6923077-.69230769h-.87798461c-.38233846 0-.69230769.30996923-.69230769.69230769v1.66707693h-1.66707693c-.38233846 0-.69230769.30996923-.69230769.69230769v.87793846c0 .38233846.30996923.69230769.69230769.69230769h1.66703077v8.72206154h-1.66703077c-.38233846 0-.69230769.3099692-.69230769.6923077v.8779846c0 .3822923.30996923.6922615.69230769.6922615h1.66703077v1.6670308c0 .3823385.30996923.6923077.69230769.6923077h.87798462c.38233846 0 .69230769-.3099692.69230769-.6923077v-1.6670308h8.72201534v1.6670308c0 .3823385.3099693.6923077.6923077.6923077h.8779385c.3823385 0 .6923077-.3099692.6923077-.6923077v-1.6670308h1.6670308c.3823384 0 .6924-.3099692.6924-.6922615v-.8779846c0-.3823385-.3100616-.6923077-.6924-.6923077h-1.6670308v-8.72201538zm-3.929677 0v8.72206158h-8.72196918v-8.72206158z" fill="#fff" transform="translate(9 6)"/></g></g></svg>