<?xml version="1.0" encoding="UTF-8"?>
<svg width="24px" height="20px" viewBox="0 0 24 20" version="1.1" xmlns="http://www.w3.org/2000/svg" xmlns:xlink="http://www.w3.org/1999/xlink">
    <!-- Generator: sketchtool 61 (101010) - https://sketch.com -->
    <title>F16ACD24-8F5F-4C83-A017-FD7BB0E7ACED</title>
    <desc>Created with sketchtool.</desc>
    <g id="Asset-Artboard-Page" stroke="none" stroke-width="1" fill="none" fill-rule="evenodd">
        <g id="Icons/Map/Gallery">
            <rect id="Rectangle" fill="#FFB876" fill-rule="nonzero" x="0" y="0" width="24" height="20" rx="4"></rect>
            <g id="Group" transform="translate(4.000000, 2.000000)">
                <rect id="Rectangle" x="0" y="0" width="16" height="16"></rect>
                <g id="crop-lines" transform="translate(2.000000, 2.000000)" fill="#FFFFFF">
                    <path d="M11.5157539,3.08132316 C11.7706462,3.08132316 11.9772924,2.874677 11.9772924,2.61978469 L11.9772924,2.03449236 C11.9772924,1.77960005 11.7706462,1.57295389 11.5157539,1.57295389 L10.4044001,1.57295389 L10.4044001,0.461538474 C10.4044001,0.206646159 10.1977539,0 9.9428616,0 L9.35753852,0 C9.10264621,0 8.89600005,0.206646159 8.89600005,0.461538474 L8.89600005,1.57292312 L3.0813231,1.57292312 L3.0813231,0.461538474 C3.0813231,0.206646159 2.87467694,0 2.61978463,0 L2.03446155,0 C1.77956924,0 1.57292309,0.206646159 1.57292309,0.461538474 L1.57292309,1.57292312 L0.461538464,1.57292312 C0.206646155,1.57292312 0,1.77956928 0,2.03446159 L0,2.61975392 C0,2.87464623 0.206646155,3.08129239 0.461538464,3.08129239 L1.57289232,3.08129239 L1.57289232,8.89600024 L0.461538464,8.89600024 C0.206646155,8.89600024 0,9.1026464 0,9.35753871 L0,9.94286181 C0,10.1977234 0.206646155,10.4043695 0.461538464,10.4043695 L1.57289232,10.4043695 L1.57289232,11.5157234 C1.57289232,11.7706157 1.77953847,11.9772619 2.03443078,11.9772619 L2.61975386,11.9772619 C2.87464617,11.9772619 3.08129233,11.7706157 3.08129233,11.5157234 L3.08129233,10.4043695 L8.89596928,10.4043695 L8.89596928,11.5157234 C8.89596928,11.7706157 9.10261544,11.9772619 9.35750775,11.9772619 L9.94280006,11.9772619 C10.1976924,11.9772619 10.4043385,11.7706157 10.4043385,11.5157234 L10.4043385,10.4043695 L11.5156924,10.4043695 C11.7705847,10.4043695 11.9772924,10.1977234 11.9772924,9.94286181 L11.9772924,9.35753871 C11.9772924,9.1026464 11.7705847,8.89600024 11.5156924,8.89600024 L10.4043385,8.89600024 L10.4043385,3.08132316 L11.5157539,3.08132316 Z M8.89596939,3.08132299 L8.89596939,8.89603043 L3.08132299,8.89603043 L3.08132299,3.08132299 L8.89596939,3.08132299 Z" id="Shape"></path>
                </g>
            </g>
        </g>
    </g>
</svg>