<?xml version="1.0" encoding="UTF-8"?>
<svg width="24px" height="24px" viewBox="0 0 24 24" version="1.1" xmlns="http://www.w3.org/2000/svg" xmlns:xlink="http://www.w3.org/1999/xlink">
    <!-- Generator: sketchtool 61.1 (101010) - https://sketch.com -->
    <title>468CDF90-3C72-4960-93FD-2456790E5F21</title>
    <desc>Created with sketchtool.</desc>
    <defs>
        <rect id="path-1" x="270" y="112" width="900" height="800" rx="4"></rect>
        <filter x="-1.7%" y="-1.9%" width="103.4%" height="103.9%" filterUnits="objectBoundingBox" id="filter-2">
            <feMorphology radius="0.5" operator="dilate" in="SourceAlpha" result="shadowSpreadOuter1"></feMorphology>
            <feOffset dx="0" dy="0" in="shadowSpreadOuter1" result="shadowOffsetOuter1"></feOffset>
            <feGaussianBlur stdDeviation="5" in="shadowOffsetOuter1" result="shadowBlurOuter1"></feGaussianBlur>
            <feComposite in="shadowBlurOuter1" in2="SourceAlpha" operator="out" result="shadowBlurOuter1"></feComposite>
            <feColorMatrix values="0 0 0 0 0   0 0 0 0 0   0 0 0 0 0  0 0 0 0.1 0" type="matrix" in="shadowBlurOuter1"></feColorMatrix>
        </filter>
    </defs>
    <g id="Desktop" stroke="none" stroke-width="1" fill="none" fill-rule="evenodd">
        <g id="Sign-In" transform="translate(-922.000000, -619.000000)">
            <rect fill="#F9F9FB" x="0" y="0" width="1440" height="1024"></rect>
            <g id="Rectangle">
                <use fill="black" fill-opacity="1" filter="url(#filter-2)" xlink:href="#path-1"></use>
                <use stroke="#EFEFEF" stroke-width="1" fill="#FFFFFF" fill-rule="evenodd" xlink:href="#path-1"></use>
            </g>
            <g id="Group-3" transform="translate(769.000000, 565.000000)">
                <g id="Group" transform="translate(0.000000, 44.000000)">
                    <g id="Google" transform="translate(130.000000, 0.000000)">
                        <rect id="Rectangle" stroke="#518EF8" fill="#FFFFFF" x="0" y="0" width="118" height="43" rx="4"></rect>
                        <g id="Icons/Social/Google" transform="translate(23.000000, 10.000000)">
                            <g>
                                <rect id="Rectangle" x="0" y="0" width="24" height="24"></rect>
                                <g id="search-(1)" transform="translate(3.000000, 3.000000)" fill-rule="nonzero">
                                    <path d="M3.98917969,10.877625 L3.362625,13.2166406 L1.07258203,13.2650859 C0.388195313,11.9956992 0,10.5433594 0,9 C0,7.50758203 0.362953125,6.10020703 1.0063125,4.86098438 L1.00680469,4.86098438 L3.04558594,5.23476563 L3.93869531,7.2613125 C3.75176953,7.80626953 3.64988672,8.39126953 3.64988672,9 C3.64995703,9.66065625 3.76962891,10.2936445 3.98917969,10.877625 Z" id="Path" fill="#FBBB00"></path>
                                    <path d="M17.8427461,7.3186875 C17.9461055,7.86311719 18,8.42537109 18,9 C18,9.64434375 17.9322539,10.2728672 17.8031953,10.8791367 C17.3650781,12.9422109 16.2202852,14.7436875 14.6344219,16.0185234 L14.6339297,16.0180312 L12.0659766,15.8870039 L11.7025312,13.6181953 C12.7548281,13.0010625 13.5772031,12.0352852 14.0103984,10.8791367 L9.19785937,10.8791367 L9.19785937,7.3186875 L14.0806055,7.3186875 L17.8427461,7.3186875 L17.8427461,7.3186875 Z" id="Path" fill="#518EF8"></path>
                                    <path d="M14.6338945,16.0180312 L14.6343867,16.0185234 C13.0920469,17.2582383 11.1327891,18 9,18 C5.57258203,18 2.59270312,16.0843008 1.07258203,13.2651211 L3.98917969,10.8776602 C4.74922266,12.9061055 6.70598437,14.3500781 9,14.3500781 C9.98602734,14.3500781 10.909793,14.0835234 11.7024609,13.6181953 L14.6338945,16.0180312 Z" id="Path" fill="#28B446"></path>
                                    <path d="M14.7446719,2.07196875 L11.8290586,4.4589375 C11.0086875,3.94614844 10.0389375,3.64992187 9,3.64992187 C6.65405859,3.64992187 4.66069922,5.16012891 3.93873047,7.2613125 L1.00680469,4.86098437 L1.0063125,4.86098437 C2.50417969,1.97307422 5.52164062,0 9,0 C11.1837305,0 13.1859844,0.777867188 14.7446719,2.07196875 Z" id="Path" fill="#F14336"></path>
                                </g>
                            </g>
                        </g>
                    </g>
                </g>
            </g>
        </g>
    </g>
</svg>