<svg height="24" viewBox="0 0 24 24" width="24" xmlns="http://www.w3.org/2000/svg"><g fill="none" fill-rule="evenodd"><path d="m0 0h24v24h-24z" transform="matrix(0 -1 -1 0 24 24)"/><path d="m11.9026734 17.0350282c-.2663226 0-.5315807-.1010322-.7348065-.3036774l-7.92909674-7.92909677c-.40587097-.40635484-.40587097-1.06374193 0-1.46903226.40587097-.40635483 1.06325807-.40635483 1.46903226 0l7.19487098 7.19429033 7.194871-7.19429033c.4058709-.40635483 1.063258-.40635483 1.4690322 0 .405871.40587097.405871 1.06267742 0 1.46903226l-7.9295806 7.92909677c-.2026452.2026452-.4684839.3036774-.7343226.3036774z" fill="#444" fill-rule="nonzero" transform="matrix(0 -1 -1 0 23.934415 23.934415)"/></g></svg>