<svg height="42" viewBox="0 0 88 42" width="88" xmlns="http://www.w3.org/2000/svg"><g fill="none"><g fill="#444"><path d="m55.6847011 13.6620646h-4.5152832l-.8624911 2.1040175h-2.3069268l4.3370982-9.81619831h2.223521l4.3484717 9.81619831h-2.3618987zm-.7070532-1.721469-1.5430061-3.75854044-1.5505884 3.75471504z"/><path d="m66.641283 15.7565293-1.9005719-2.732125h-2.0963884v2.732125h-2.2806863v-9.80508052h4.2657281c.7800954-.01862981 1.5551509.12925458 2.2730072.43370095.6052108.25734153 1.1212029.68582957 1.4839819 1.23232208.3573733.56557908.539024 1.22356839.5221774 1.8914711.0578275 1.35902949-.7559375 2.60527569-2.0272768 3.10468739l2.2096549 3.1524518zm-.5759308-7.51620943c-.3570772-.29422884-.8779747-.44134326-1.5626925-.44134326h-1.858337v3.41802199h1.8640963c.6847178 0 1.2056153-.149025 1.5626925-.447075.3414596-.3331054.5338675-.78894478.5338675-1.26480185s-.1924079-.93169648-.5338675-1.26480188z"/><path d="m72.2965673 7.79950651h-3.2056582v-1.84962272h8.7272727v1.84962272h-3.2056582v7.96657559h-2.3159563z"/><path d="m48 19.2737058h4.593936c1.0068234-.0236931 2.0053595.1819002 2.915534.600293.813373.3779133 1.4973083.9752714 1.9699554 1.7205852.9365237 1.6005646.9365237 3.5611911 0 5.1617557-.4731646.7448951-1.1569572 1.3421286-1.9699554 1.7205852-.9075591.4208117-1.9040029.6296644-2.9096241.6098519h-4.5998459zm4.4777086 7.9471919c1.0112438 0 1.8176122-.2733819 2.4191053-.8201456.601493-.5467638.9022395-1.2872527.9022395-2.2214667 0-.9342141-.3007465-1.674703-.9022395-2.2214667-.6014931-.5467637-1.4078615-.8201456-2.4191053-.8201456h-2.1374016v6.0832246z"/><path d="m65.8642766 26.9744843h-4.5184237l-.863091 2.1040176h-2.3009437l4.3325271-9.8066346h2.2250676l4.3514962 9.8161983h-2.3635415zm-.7094419-1.7214689-1.5421824-3.7566277-1.5440792 3.7566277z"/><path d="m72.2953326 21.113839h-3.2044235v-1.8419717h8.7272727v1.8515354h-3.2044235v7.9646629h-2.3184257z"/><path d="m84.7689394 26.9744843h-4.5151515l-.8598485 2.1040176h-2.3030303l4.3314394-9.8066346h2.2215909l4.3560606 9.8161983h-2.3712121zm-.7083333-1.7214689-1.5340909-3.7604532-1.5416667 3.7566277z"/><path d="m56.263578 37.4983956c.3152088.4427879.4777037.9818179.4615592 1.5310896.0337479.7912118-.3343664 1.5433761-.9713133 1.9846749-.648778.4631547-1.5935224.694732-2.8342331.694732h-4.9195908v-9.8161984h4.6563723c1.1591501 0 2.0489027.2296635 2.6692581.6889903.5985368.4166497.948395 1.1210332.9268257 1.8660155.0193094.9116832-.4722737 1.7531293-1.2623366 2.1607502.5041081.1520086.9494409.4632257 1.2734585.8899459zm-6.0744157-3.8927954v2.3138592h2.1873087c.5431198 0 .9564841-.0976069 1.2363855-.2947347.2795163-.1921466.4396074-.522729.4207788-.8688934.0210731-.345076-.139787-.6750514-.4207788-.8631518-.2799014-.1913862-.6932657-.2870793-1.2363855-.2870793zm3.8796924 6.103306c.2956635-.1999716.4642146-.5487548.4411691-.9129122 0-.8127534-.5845181-1.2191301-1.7535543-1.2191301h-2.5673072v2.4267771h2.5673072c.579575 0 1.0170368-.0982449 1.3123852-.2947348z"/><path d="m65.1411421 39.6048745h-4.5171787l-.8624912 2.1040176h-2.3069267l4.3370981-9.8161984h2.2235211l4.3484717 9.8161984h-2.3618988zm-.7089488-1.7214689-1.543006-3.7585405-1.5430061 3.7585405z"/><path d="m70.8007574 41.3958388c-.6144372-.1585777-1.1940519-.427543-1.7098483-.7934404l.7491121-1.6534631c.4512414.3180867.9514451.5622708 1.4813691.7231589.5497765.1769069 1.1241372.2680122 1.7023573.2700287.6311269 0 1.099322-.0924756 1.4008396-.2774267.2779083-.1449295.4521997-.429435.4532128-.7398046.0008661-.2155588-.097703-.419778-.2678076-.5548534-.2034278-.1624082-.4368504-.2842647-.6873103-.3588052-.2790443-.0906261-.6554731-.1849511-1.1330321-.2977713-.6092145-.1362853-1.2095861-.3086004-1.797869-.5160137-.4649508-.1710482-.8785483-.4554423-1.2023249-.8267316-.3499086-.4282949-.5279062-.9688205-.5000323-1.5184488-.0051716-.5336275.1527801-1.0563847.4532128-1.4999537.3406719-.4780737.8151274-.8476516 1.3652568-1.0634691.7088589-.2812146 1.4687462-.4153127 2.232354-.3939459.6060728-.0001504 1.2098743.0731448 1.797869.2182423.5427032.1260476 1.0616872.3364308 1.5375526.6232854l-.6854375 1.6645602c-.8075406-.4724826-1.7264246-.7275682-2.6649663-.7398045-.621763 0-1.082467.0998736-1.3783663.2996208-.279418.1654422-.4496.4643071-.4475944.7860423-.001052.3249731.2052405.6153801.5150145.7250085.5066936.2089748 1.0338614.3657799 1.5731354.4679264.6092145.1362852 1.2095862.3086003 1.797869.5160136.4627066.1689819.875795.4485778 1.2023249.813785.351476.4216862.5299172.9582788.5000324 1.5036528.0027539.5277753-.1572877 1.043867-.4588312 1.4796091-.3469354.4786436-.8261101.848488-1.380239 1.0653185-.71287.2781429-1.475549.4102838-2.241718.3883974-.7465833.0003508-1.489415-.1042715-2.2061351-.3107179z"/><path d="m85.8181818 39.8860477v1.8228444h-7.2727273v-9.8161984h7.0988262v1.8228443h-4.9424525v2.1327087h4.362172v1.7654621h-4.3585109v2.2723389z"/><path d="m42.4259296.72192002c.4584197.24859146.8376152.61324326 1.0965858 1.05452722.535836.92869123.535836 2.0583184 0 2.98700963-.2628688.44619172-.6450626.81627528-1.106763 1.07169394-.9607575.52322524-2.1356345.52322524-3.0963921 0-.4593079-.25376706-.839039-.62232486-1.0991301-1.06678916-.5360645-.92339747-.5360645-2.04889784 0-2.9722953.2627921-.44414577.6440363-.81246698 1.1042187-1.06678916.9675541-.51819946 2.1441036-.51819946 3.1116578 0zm-.2544283 4.7134914c.3806969-.21943058.6948223-.53151371.9108532-.90493149.446239-.78531403.446239-1.73574173 0-2.52105575-.2132598-.37011819-.527325-.67707985-.9083089-.88776477-.3974669-.22031575-.8493136-.33301047-1.3077614-.32616772-.4613951-.00582952-.9158597.10855501-1.3153941.3310725-.3856455.21222007-.7040484.52166638-.9210304.89512193-.4443456.78578008-.4443456 1.73527567 0 2.52105575.2164441.37283249.532769.68281413.9159418.89757433.3964702.22074431.8473934.33427517 1.305217.32862011.4594295.00672612.9119023-.10867027 1.3077614-.33352489zm.1017713-2.02812559c-.1230978.17867048-.3009907.31584475-.5088566.39238222l.7632849 1.12809888h-.7454749l-.6742349-1.00302705h-.7632848v1.00302705h-.7454749v-3.28865347h1.4197098c.3780031-.02053972.7512918.08896654 1.0533331.309001.2563939.20466175.3985723.51323591.3841867.83381221.0021486.22279956-.0661897.4409406-.1959098.62535916zm-1.3026728-.04169061c.20105.01211905.400354-.04239741.5648308-.1545005.1332695-.10444038.2069671-.26381557.1984541-.42916805.0089427-.16473287-.0649171-.32354615-.1984541-.42671566-.1662128-.10811459-.3646411-.16066842-.5648308-.14959572h-.6386149v1.15997993z"/></g><path d="m32.4554315 3.14525569c.7340923-.0004693 1.416896.36077776 1.8077192.9564002.3908233.59562244.4347866 1.341983.1163929 1.97598577l-4.3003906 9.72851164 12.1026652 25.9027388h-3.9675192c-.7192567-.0007043-1.3697232-.4098367-1.6566605-1.0420113l-8.7912682-19.6322288-4.8987895 11.0840484h6.8286739c.6950844.0000896 1.3206697.4042167 1.5816202 1.0217243l1.1352261 2.6834094h-11.2868416l-2.1530815 4.8338254c-.2819746.6374114-.9343419 1.0512326-1.6566605 1.0512326h-3.8847824l5.148924-10.9641711h-12.80881427c-.73397481.0011753-1.41696816-.3596229-1.80790543-.9550444-.39093726-.5954216-.434838-1.3417278-.11620667-1.9754968l10.62879527-23.51072359c.3557906-.70847022 1.1037964-1.15872482 1.9241121-1.15820052zm-27.45802801 29.44859501c1.03990729-.0020942 2.00660127.5038878 2.55396253 1.3367885s.59709998 1.8735892.13140749 2.7494527l-2.18506114 4.1058715c-.3012765.5659714-.91596809.9232007-1.58810168.9229287h-3.90961069l4.92728444-9.1150414z" fill="#7976ff"/></g></svg>