<svg height="24" viewBox="0 0 24 24" width="24" xmlns="http://www.w3.org/2000/svg"><g fill="none" fill-rule="evenodd"><path d="m0 0h24v24h-24z" transform="matrix(-1 0 0 -1 24 24)"/><path d="m12.0317419 16.9059597c-.2663225 0-.5315806-.1010323-.7348064-.3036774l-7.92909679-7.92909682c-.40587097-.40635483-.40587097-1.06374193 0-1.46903225.40587097-.40635484 1.06325806-.40635484 1.46903226 0l7.19487093 7.19429027 7.194871-7.19429027c.405871-.40635484 1.0632581-.40635484 1.4690323 0 .4058709.40587096.4058709 1.06267742 0 1.46903225l-7.9295807 7.92909682c-.2026451.2026451-.4684839.3036774-.7343226.3036774z" fill="#444" fill-rule="nonzero" transform="matrix(-1 0 0 -1 24.063484 23.805346)"/></g></svg>