<svg height="512" viewBox="0 0 51 58" width="512" xmlns="http://www.w3.org/2000/svg"><g id="Page-1" fill="none" fill-rule="evenodd"><g id="010---Directional-Traffic-Arrow" fill-rule="nonzero" transform="translate(0 -1)"><path id="Shape" d="m31.997 53v-33h-6c-.3708398.002689-.7118642-.2028062-.8827573-.5319337s-.1427857-.7262873.0727573-1.0280663l1.98-2.8 6.93-9.81 3.12-4.42c.1884555-.25917327.4895531-.41251592.81-.41251592s.6215445.15334265.81.41251592l11.97 17.03c.215543.301779.2436504.6989388.0727573 1.0280663s-.5119175.5346227-.8827573.5319337h-6v33c0 .5522847-.4477153 1-1 1h-10c-.5522847 0-1-.4477153-1-1z" fill="#285680"/><path id="Shape" d="m7.003 7v32.9975h-6c-.37083976-.002689-.71186417.2028062-.88275728.5319337-.17089312.3291275-.14278572.7262873.07275728 1.0280663l1.98 2.8 6.93 9.81 3.12 4.42c.1884296.2592125.4895366.412586.81.412586s.6215704-.1533735.81-.412586l11.97-17.03c.215543-.301779.2436504-.6989388.0727573-1.0280663s-.5119175-.5346227-.8827573-.5319337h-6v-32.9975c0-.55228475-.4477153-1-1-1h-10c-.26521649 0-.5195704.10535684-.70710678.29289322s-.29289322.44189029-.29289322.70710678z" fill="#4482c3"/></g></g></svg>