<svg xmlns="http://www.w3.org/2000/svg" width="15" height="15" viewBox="0 0 15 15"><defs><style>.a{fill:#242128;}</style></defs><g transform="translate(-0.001)"><g transform="translate(0.001)"><path class="a" d="M6.163,223.072a.307.307,0,0,0-.449,0l-3.242,3.242-1.406-1.406a.6.6,0,0,0-.439-.185.6.6,0,0,0-.44.185.6.6,0,0,0-.186.44v4.375a.6.6,0,0,0,.186.439.6.6,0,0,0,.44.186H5a.622.622,0,0,0,.439-1.065l-1.406-1.406,3.242-3.242a.307.307,0,0,0,0-.449Z" transform="translate(-0.001 -215.347)"/><path class="a" d="M230.163.186A.6.6,0,0,0,229.723,0h-4.375a.6.6,0,0,0-.439.186.6.6,0,0,0-.185.439.6.6,0,0,0,.185.439l1.406,1.406-3.242,3.242a.307.307,0,0,0,0,.449l1.113,1.113a.307.307,0,0,0,.449,0l3.242-3.242,1.406,1.406A.625.625,0,0,0,230.348,5V.625A.6.6,0,0,0,230.163.186Z" transform="translate(-215.348)"/></g></g></svg>