<svg xmlns="http://www.w3.org/2000/svg" xmlns:xlink="http://www.w3.org/1999/xlink" width="220" height="220" viewBox="0 0 220 220"><defs><style>.a,.c{fill:#efc25f;}.c{stroke:#efc25f;stroke-miterlimit:10;}</style><clipPath id="a"><rect class="a" width="220" height="220" rx="4" transform="translate(-0.154 0.331)"/></clipPath></defs><g class="b" transform="translate(0.154 -0.331)"><g transform="translate(-24.364 -10.472)"><path class="a" d="M134.055,47.937a8.848,8.848,0,0,0-6.664-6V37.266a8.546,8.546,0,0,0,6.954-8.072,8.545,8.545,0,0,0-6.954-8.072V16.414c4.381-1.013,7.309-4.721,6.93-8.776S130.367.367,125.86.026,117.231,2.32,116.1,6.261h-5.219a9.556,9.556,0,0,0-17.94,0H87.727a9.563,9.563,0,0,0-17.945,0H64.568A9.147,9.147,0,0,0,55.6.005a9.147,9.147,0,0,0-8.973,6.256H41.43A9.147,9.147,0,0,0,32.457.005a9.147,9.147,0,0,0-8.973,6.256H18.251C17.122,2.325,13-.3,8.5.038S.426,3.592.046,7.643,2.589,15.4,6.964,16.414V21.1A8.545,8.545,0,0,0,.011,29.176a8.545,8.545,0,0,0,6.954,8.072v4.69A8.546,8.546,0,0,0,.011,50.01a8.545,8.545,0,0,0,6.954,8.072v4.69a8.162,8.162,0,0,0,0,16.143v4.708a8.158,8.158,0,0,0,0,16.139v4.695c-4.369,1.018-7.287,4.722-6.906,8.768s3.949,7.256,8.446,7.6,8.614-2.282,9.746-6.212h5.214a9.147,9.147,0,0,0,8.973,6.256,9.147,9.147,0,0,0,8.973-6.256h5.214a9.147,9.147,0,0,0,8.973,6.256,9.147,9.147,0,0,0,8.973-6.256h5.214a9.563,9.563,0,0,0,17.945,0h5.234a9.556,9.556,0,0,0,17.94,0h5.219c1.132,3.931,5.249,6.555,9.746,6.213s8.065-3.552,8.446-7.6-2.536-7.75-6.906-8.768V99.749a8.158,8.158,0,0,0,0-16.139V78.915a8.162,8.162,0,0,0,0-16.143v-4.69C132.357,56.932,135.333,52.39,134.055,47.937ZM125.077,66.68a4.176,4.176,0,1,1,0,8.331,2.212,2.212,0,0,0-2.319,2.086v8.344a2.217,2.217,0,0,0,2.319,2.086,4.176,4.176,0,1,1,0,8.331,2.217,2.217,0,0,0-2.319,2.086v8.331a2.212,2.212,0,0,0,2.319,2.086,4.191,4.191,0,1,1-4.633,4.168,2.212,2.212,0,0,0-2.319-2.086h-9.261a2.217,2.217,0,0,0-2.319,2.086,4.675,4.675,0,0,1-9.261,0,2.214,2.214,0,0,0-2.3-2.091H85.706a2.212,2.212,0,0,0-2.319,2.086,4.675,4.675,0,0,1-9.261,0,2.217,2.217,0,0,0-2.319-2.086H62.543a2.211,2.211,0,0,0-2.314,2.086,4.659,4.659,0,0,1-9.266,0,2.211,2.211,0,0,0-2.314-2.086h-9.24a2.211,2.211,0,0,0-2.314,2.086,4.419,4.419,0,0,1-4.633,4.168,4.419,4.419,0,0,1-4.633-4.168,1.987,1.987,0,0,0-.686-1.482,2.459,2.459,0,0,0-1.653-.6H16.225a2.211,2.211,0,0,0-2.314,2.086,4.419,4.419,0,0,1-4.633,4.168,4.191,4.191,0,1,1,0-8.335,2.451,2.451,0,0,0,1.638-.611,1.981,1.981,0,0,0,.676-1.475v-8.34a2.211,2.211,0,0,0-2.314-2.086A4.773,4.773,0,0,1,5.139,93.8a3.811,3.811,0,0,1,0-4.247,4.773,4.773,0,0,1,4.139-2.042,2.213,2.213,0,0,0,2.314-2.072V77.1a1.981,1.981,0,0,0-.676-1.475,2.451,2.451,0,0,0-1.638-.611,4.773,4.773,0,0,1-4.139-2.042,3.811,3.811,0,0,1,0-4.247A4.773,4.773,0,0,1,9.278,66.68a2.211,2.211,0,0,0,2.314-2.086V56.259a2.207,2.207,0,0,0-2.314-2.082,4.191,4.191,0,1,1,0-8.335,2.207,2.207,0,0,0,2.314-2.082V35.448a2.207,2.207,0,0,0-2.314-2.082A4.419,4.419,0,0,1,4.645,29.2a4.419,4.419,0,0,1,4.633-4.168,2.207,2.207,0,0,0,2.314-2.082V14.592A2.207,2.207,0,0,0,9.278,12.51,4.419,4.419,0,0,1,4.645,8.343,4.419,4.419,0,0,1,9.278,4.175a4.419,4.419,0,0,1,4.633,4.168,2.207,2.207,0,0,0,2.314,2.082H25.49a2.205,2.205,0,0,0,2.3-2.082,4.419,4.419,0,0,1,4.633-4.168,4.419,4.419,0,0,1,4.633,4.168,1.984,1.984,0,0,0,.692,1.485,2.457,2.457,0,0,0,1.662.6h9.24a2.207,2.207,0,0,0,2.314-2.082,4.659,4.659,0,0,1,9.266,0,2.207,2.207,0,0,0,2.314,2.082h9.266a2.212,2.212,0,0,0,2.319-2.082A4.089,4.089,0,0,1,76.4,4.619a5.081,5.081,0,0,1,4.721,0,4.089,4.089,0,0,1,2.27,3.724,1.982,1.982,0,0,0,.679,1.473,2.452,2.452,0,0,0,1.639.608h9.276A2.212,2.212,0,0,0,97.3,8.343a4.089,4.089,0,0,1,2.27-3.724,5.081,5.081,0,0,1,4.721,0,4.089,4.089,0,0,1,2.27,3.724,2.212,2.212,0,0,0,2.319,2.082h9.261a2.452,2.452,0,0,0,1.639-.608,1.982,1.982,0,0,0,.68-1.473,4.659,4.659,0,0,1,9.266,0,4.419,4.419,0,0,1-4.633,4.168,2.213,2.213,0,0,0-2.324,2.082v8.335A2.213,2.213,0,0,0,125.077,25a4.419,4.419,0,0,1,4.633,4.168,4.419,4.419,0,0,1-4.633,4.168,2.453,2.453,0,0,0-1.646.625,1.98,1.98,0,0,0-.663,1.492v8.313a2.212,2.212,0,0,0,2.319,2.082,4.191,4.191,0,1,1,0,8.335,2.212,2.212,0,0,0-2.319,2.082v8.335a2.215,2.215,0,0,0,2.309,2.086Z" transform="translate(-0.005 0.003)"/><path class="c" d="M74.983,124.966a17.92,17.92,0,0,0-25.566,0,18.231,18.231,0,0,0,0,25.487L62.2,163.445l12.786-12.993A18.25,18.25,0,0,0,74.983,124.966Zm-2.246,23.7L62.2,159.374l-10.535-10.71a15.705,15.705,0,0,1,0-21.909,14.689,14.689,0,0,1,21.07,0A15.682,15.682,0,0,1,72.738,148.664Z" transform="translate(-20.607 -66.782)"/><path class="c" d="M178.356,75.728,188.05,65.9a13.707,13.707,0,0,0,0-19.173,13.626,13.626,0,0,0-19.384,0,13.707,13.707,0,0,0,0,19.173Zm-7.449-27.2a10.389,10.389,0,0,1,14.9,0,11.125,11.125,0,0,1,0,15.573l-7.449,7.564L170.907,64.1A11.125,11.125,0,0,1,170.907,48.523Z" transform="translate(-82.418 -23.573)"/><path class="c" d="M201.267,210.381a1.625,1.625,0,0,0-1.133.171,1.345,1.345,0,0,0-.657.848,4.46,4.46,0,0,1-.989,1.878,1.243,1.243,0,0,0-.317,1,1.311,1.311,0,0,0,.57.9,1.634,1.634,0,0,0,.925.289,1.55,1.55,0,0,0,1.182-.516A7.119,7.119,0,0,0,202.4,212a1.223,1.223,0,0,0-.19-1.023A1.493,1.493,0,0,0,201.267,210.381Z" transform="translate(-99.547 -117.754)"/><path class="c" d="M137,137.564a5.8,5.8,0,0,1-1.88-.307,1.554,1.554,0,0,0-1.934.779,1.311,1.311,0,0,0,.866,1.74,9.245,9.245,0,0,0,2.943.489h.539a1.358,1.358,0,1,0,0-2.7Z" transform="translate(-66.177 -76.648)"/><path class="c" d="M132.164,114.042a1.608,1.608,0,0,0,.791-.2,5.6,5.6,0,0,1,2.181-.681,1.385,1.385,0,0,0,1.321-1.482,1.464,1.464,0,0,0-1.647-1.188,8.772,8.772,0,0,0-3.462,1.068,1.283,1.283,0,0,0-.7,1.531,1.478,1.478,0,0,0,1.494.965Z" transform="translate(-64.898 -61.656)"/><path class="c" d="M93.526,221.147h-3a1.356,1.356,0,1,0,0,2.7h3a1.356,1.356,0,1,0,0-2.7Z" transform="translate(-43.582 -123.821)"/><path class="c" d="M151.479,165.757h-.386a1.422,1.422,0,0,0-1.469,1.375,1.437,1.437,0,0,0,1.528,1.321h3a1.356,1.356,0,1,0,0-2.7Z" transform="translate(-74.658 -92.707)"/><path class="c" d="M150.311,113.072h3a1.356,1.356,0,1,0,0-2.7h-3a1.356,1.356,0,1,0,0,2.7Z" transform="translate(-74.242 -61.598)"/><path class="c" d="M188.118,165.757a1.356,1.356,0,1,0,0,2.7h3a1.356,1.356,0,1,0,0-2.7Z" transform="translate(-93.629 -92.707)"/><path class="c" d="M194.394,139.406a1.415,1.415,0,0,0-1.484-1.335h-3a1.358,1.358,0,1,0,0,2.7h3a1.57,1.57,0,0,0,1.062-.4A1.266,1.266,0,0,0,194.394,139.406Z" transform="translate(-94.548 -77.155)"/><path class="c" d="M169.651,168.453h3a1.356,1.356,0,1,0,0-2.7h-3a1.356,1.356,0,1,0,0,2.7Z" transform="translate(-84.159 -92.707)"/><path class="c" d="M171.775,113.072a1.356,1.356,0,1,0,0-2.7h-3a1.356,1.356,0,1,0,0,2.7Z" transform="translate(-83.712 -61.598)"/><path class="c" d="M152.948,138.071a1.358,1.358,0,1,0,0,2.7h3a1.358,1.358,0,1,0,0-2.7Z" transform="translate(-75.593 -77.155)"/><path class="c" d="M175.911,139.406a1.415,1.415,0,0,0-1.484-1.335h-3.012a1.358,1.358,0,1,0,0,2.7h3a1.572,1.572,0,0,0,1.071-.4A1.267,1.267,0,0,0,175.911,139.406Z" transform="translate(-85.063 -77.155)"/><path class="c" d="M222.186,150.835a1.5,1.5,0,0,0-1.731-1.112,1.376,1.376,0,0,0-1.236,1.557,3.679,3.679,0,0,1,.064.748,4.2,4.2,0,0,1-.213,1.335,1.216,1.216,0,0,0,.118,1.029,1.466,1.466,0,0,0,.9.644,1.7,1.7,0,0,0,.42.053,1.471,1.471,0,0,0,1.439-.97,6.65,6.65,0,0,0,.331-2.078A6.416,6.416,0,0,0,222.186,150.835Z" transform="translate(-110.238 -83.69)"/><path class="c" d="M167.379,221.147h-3a1.356,1.356,0,1,0,0,2.7h3a1.356,1.356,0,1,0,0-2.7Z" transform="translate(-81.457 -123.821)"/><path class="c" d="M148.912,221.147h-3a1.356,1.356,0,1,0,0,2.7h3a1.356,1.356,0,1,0,0-2.7Z" transform="translate(-71.987 -123.821)"/><path class="c" d="M181.208,194.817a1.415,1.415,0,0,0-1.484-1.335h-3a1.356,1.356,0,1,0,0,2.7h3a1.57,1.57,0,0,0,1.06-.4,1.267,1.267,0,0,0,.424-.961Z" transform="translate(-87.788 -108.281)"/><path class="c" d="M162.741,194.817a1.415,1.415,0,0,0-1.484-1.335h-3a1.356,1.356,0,1,0,0,2.7h3a1.57,1.57,0,0,0,1.06-.4,1.267,1.267,0,0,0,.424-.961Z" transform="translate(-78.318 -108.281)"/><path class="c" d="M185.732,221.147h-2.893a1.356,1.356,0,1,0,0,2.7h2.968l.045-1.335v1.335a1.537,1.537,0,0,0,1.032-.4,1.241,1.241,0,0,0,.412-.939A1.473,1.473,0,0,0,185.732,221.147Z" transform="translate(-90.922 -123.821)"/><path class="c" d="M197.23,199.276a1.592,1.592,0,0,0,.925-.289,1.311,1.311,0,0,0,.567-.9,1.242,1.242,0,0,0-.315-.993,8.139,8.139,0,0,0-2.814-2.06,1.582,1.582,0,0,0-2.013.605,1.29,1.29,0,0,0,.673,1.811,5.12,5.12,0,0,1,1.8,1.313A1.551,1.551,0,0,0,197.23,199.276Z" transform="translate(-97.118 -109.074)"/><path class="c" d="M208.909,164.79a5.678,5.678,0,0,1-2.028.365h-.336a1.356,1.356,0,1,0,0,2.7h.321a8.951,8.951,0,0,0,3.185-.574,1.3,1.3,0,0,0,.8-1.764,1.563,1.563,0,0,0-1.961-.723Z" transform="translate(-103.079 -92.105)"/><path class="c" d="M126.513,127.761a1.452,1.452,0,0,0,.873-.67,1.214,1.214,0,0,0,.081-1.03,4.282,4.282,0,0,1-.257-1.468,4.864,4.864,0,0,1,.04-.605,1.382,1.382,0,0,0-1.3-1.5,1.472,1.472,0,0,0-1.672,1.166,7.184,7.184,0,0,0-.069.934,6.736,6.736,0,0,0,.411,2.318,1.479,1.479,0,0,0,1.424.926A1.537,1.537,0,0,0,126.513,127.761Z" transform="translate(-61.627 -68.394)"/><path class="c" d="M112.019,221.147h-3a1.356,1.356,0,1,0,0,2.7h3a1.356,1.356,0,1,0,0-2.7Z" transform="translate(-53.068 -123.821)"/><path class="c" d="M143.609,192.823a1.465,1.465,0,0,0,1.519-1.049,1.312,1.312,0,0,0-.9-1.523,5.369,5.369,0,0,1-1.84-1.264,1.617,1.617,0,0,0-2.112-.165,1.257,1.257,0,0,0-.183,1.9,8.251,8.251,0,0,0,2.889,1.98A1.685,1.685,0,0,0,143.609,192.823Z" transform="translate(-69.592 -105.487)"/><path class="c" d="M211.913,139.081a8.892,8.892,0,0,0-3.462-.974,1.46,1.46,0,0,0-1.612,1.241,1.4,1.4,0,0,0,1.38,1.451,5.628,5.628,0,0,1,2.206.614,1.629,1.629,0,0,0,1.138.142,1.472,1.472,0,0,0,.91-.631,1.219,1.219,0,0,0,.152-1.027A1.368,1.368,0,0,0,211.913,139.081Z" transform="translate(-103.995 -77.173)"/><path class="c" d="M130.45,221.147h-3a1.356,1.356,0,1,0,0,2.7h3a1.356,1.356,0,1,0,0-2.7Z" transform="translate(-62.517 -123.821)"/><path class="c" d="M139.719,175.453a4.468,4.468,0,0,1,.925-1.9,1.263,1.263,0,0,0-.317-1.887,1.612,1.612,0,0,0-2.1.285,7.055,7.055,0,0,0-1.459,3,1.227,1.227,0,0,0,.226,1.015,1.506,1.506,0,0,0,.966.564,2.013,2.013,0,0,0,.282.022A1.477,1.477,0,0,0,139.719,175.453Z" transform="translate(-68.051 -95.876)"/><path class="c" d="M182.918,66.517c3.54,0,6.41-2.582,6.41-5.766s-2.87-5.766-6.41-5.766-6.41,2.582-6.41,5.766S179.379,66.514,182.918,66.517Zm0-9.436a3.691,3.691,0,1,1-4.08,3.67A3.891,3.891,0,0,1,182.918,57.081Z" transform="translate(-86.866 -28.866)"/><path class="c" d="M71.647,138.071c-4.969,0-9,3.624-9,8.094s4.028,8.094,9,8.094,9-3.624,9-8.094S76.613,138.076,71.647,138.071Zm0,13.486c-3.311,0-6-2.406-6-5.385s2.677-5.4,5.988-5.4,6,2.409,6,5.388-2.678,5.388-5.985,5.393Z" transform="translate(-30.057 -77.155)"/></g></g></svg>
