<svg xmlns="http://www.w3.org/2000/svg" xmlns:xlink="http://www.w3.org/1999/xlink" width="220" height="220" viewBox="0 0 220 220"><defs><style>.a{fill:#efc25f;}.b{opacity:0.5;clip-path:url(#a);}</style><clipPath id="a"><rect class="a" width="220" height="220" rx="4"/></clipPath></defs><g class="b"><g transform="translate(-11.963 -11.893)"><path class="a" d="M121.61,48.371a8.408,8.408,0,0,0-6.045-6.054V37.6a8.412,8.412,0,0,0,0-16.29V16.562a8.415,8.415,0,1,0-10.239-10.25h-4.735a8.4,8.4,0,0,0-16.275,0H79.582a8.4,8.4,0,0,0-16.28,0h-4.73a8.4,8.4,0,0,0-16.28,0H37.58a8.4,8.4,0,0,0-16.28,0H16.552A8.407,8.407,0,1,0,6.308,16.562v4.733a8.412,8.412,0,0,0,0,16.29v4.733a8.412,8.412,0,0,0,0,16.29V63.34a8.412,8.412,0,0,0,0,16.29V84.38a8.407,8.407,0,0,0,0,16.285V105.4a8.41,8.41,0,1,0,10.244,10.245h4.73a8.4,8.4,0,0,0,16.28,0h4.73a8.4,8.4,0,0,0,16.28,0H63.3a8.4,8.4,0,0,0,16.28,0H84.33a8.4,8.4,0,0,0,16.275,0h4.734A8.4,8.4,0,1,0,115.579,105.4v-4.751a8.407,8.407,0,0,0,0-16.285V79.629a8.412,8.412,0,0,0,0-16.29V58.607a8.4,8.4,0,0,0,6.032-10.236Zm-8.145,18.908a4.205,4.205,0,0,1,0,8.411,2.1,2.1,0,0,0-2.1,2.1v8.42a2.1,2.1,0,0,0,2.1,2.1,4.205,4.205,0,0,1,0,8.406,2.1,2.1,0,0,0-2.1,2.105v8.406a2.1,2.1,0,0,0,2.1,2.105,4.205,4.205,0,1,1-4.2,4.205,2.1,2.1,0,0,0-2.1-2.1h-8.4a2.1,2.1,0,0,0-2.1,2.1,4.2,4.2,0,0,1-8.4,0,2.1,2.1,0,0,0-2.09-2.11H77.748a2.1,2.1,0,0,0-2.1,2.1,4.2,4.2,0,1,1-8.406,0,2.1,2.1,0,0,0-2.1-2.1H56.734a2.1,2.1,0,0,0-2.1,2.1,4.2,4.2,0,1,1-8.406,0,2.1,2.1,0,0,0-2.1-2.1H35.747a2.1,2.1,0,0,0-2.1,2.1,4.2,4.2,0,1,1-8.406,0,2.1,2.1,0,0,0-2.122-2.1H14.714a2.1,2.1,0,0,0-2.1,2.1,4.2,4.2,0,1,1-4.2-4.205,2.1,2.1,0,0,0,2.1-2.1V98.817a2.1,2.1,0,0,0-2.1-2.1,4.205,4.205,0,1,1,0-8.406,2.1,2.1,0,0,0,2.1-2.091v-8.42a2.1,2.1,0,0,0-2.1-2.1,4.205,4.205,0,0,1,0-8.411,2.1,2.1,0,0,0,2.1-2.1V56.768a2.1,2.1,0,0,0-2.1-2.1,4.205,4.205,0,0,1,0-8.411,2.1,2.1,0,0,0,2.1-2.1V35.768a2.1,2.1,0,0,0-2.1-2.1,4.205,4.205,0,0,1,0-8.411,2.1,2.1,0,0,0,2.1-2.1V14.723a2.1,2.1,0,0,0-2.1-2.1,4.205,4.205,0,1,1,4.2-4.205,2.1,2.1,0,0,0,2.1,2.1H23.12a2.1,2.1,0,0,0,2.085-2.1,4.2,4.2,0,1,1,8.406,0,2.1,2.1,0,0,0,2.136,2.1H44.13a2.1,2.1,0,0,0,2.1-2.1,4.2,4.2,0,1,1,8.406,0,2.1,2.1,0,0,0,2.1,2.1H65.14a2.1,2.1,0,0,0,2.1-2.1,4.2,4.2,0,1,1,8.406,0,2.1,2.1,0,0,0,2.1,2.1h8.415a2.1,2.1,0,0,0,2.1-2.1,4.2,4.2,0,1,1,8.4,0,2.1,2.1,0,0,0,2.1,2.1h8.4a2.1,2.1,0,0,0,2.1-2.1,4.2,4.2,0,1,1,4.2,4.205,2.1,2.1,0,0,0-2.108,2.1v8.411a2.1,2.1,0,0,0,2.095,2.087,4.205,4.205,0,0,1,0,8.411,2.1,2.1,0,0,0-2.095,2.137v8.388a2.1,2.1,0,0,0,2.1,2.1,4.205,4.205,0,0,1,0,8.411,2.1,2.1,0,0,0-2.1,2.1v8.411a2.1,2.1,0,0,0,2.095,2.1Z" transform="translate(0.005 0.005)"/><path class="a" d="M56.649,95.875H43.069a1.314,1.314,0,0,0-1.375,1.242v12.237a1.314,1.314,0,0,0,1.375,1.242h13.58a1.314,1.314,0,0,0,1.375-1.242V97.1A1.315,1.315,0,0,0,56.649,95.875Zm-1.375,12.266H44.412V98.33H55.274Z" transform="translate(-22.868 -51.911)"/><path class="a" d="M147.655,95.875H85.189a1.314,1.314,0,0,0-1.375,1.242v12.237a1.314,1.314,0,0,0,1.375,1.242h62.466a1.314,1.314,0,0,0,1.375-1.242V97.1A1.315,1.315,0,0,0,147.655,95.875Zm-1.375,12.266H86.546V98.33H146.3Z" transform="translate(-45.972 -51.911)"/><path class="a" d="M56.649,53.805H43.069a1.314,1.314,0,0,0-1.375,1.242V67.284a1.314,1.314,0,0,0,1.375,1.242h13.58a1.314,1.314,0,0,0,1.375-1.242V55.018a1.317,1.317,0,0,0-1.375-1.213ZM55.274,66.071H44.412V56.243H55.274Z" transform="translate(-22.868 -29.132)"/><path class="a" d="M147.655,53.805H85.189a1.314,1.314,0,0,0-1.375,1.242V67.284a1.314,1.314,0,0,0,1.375,1.242h62.466a1.314,1.314,0,0,0,1.375-1.242V55.018a1.317,1.317,0,0,0-1.375-1.213ZM146.28,66.071H86.546V56.243H146.3Z" transform="translate(-45.972 -29.132)"/><path class="a" d="M56.649,137.995H43.069a1.314,1.314,0,0,0-1.375,1.242V151.5a1.314,1.314,0,0,0,1.375,1.242h13.58a1.314,1.314,0,0,0,1.375-1.242V139.22A1.316,1.316,0,0,0,56.649,137.995Zm-1.375,12.266H44.412v-9.815H55.274Z" transform="translate(-22.868 -74.716)"/><path class="a" d="M147.655,137.995H85.189a1.314,1.314,0,0,0-1.375,1.242V151.5a1.314,1.314,0,0,0,1.375,1.242h62.466a1.314,1.314,0,0,0,1.375-1.242V139.22A1.316,1.316,0,0,0,147.655,137.995Zm-1.375,12.266H86.546v-9.815H146.3Z" transform="translate(-45.972 -74.716)"/><path class="a" d="M56.649,180.105H43.069a1.314,1.314,0,0,0-1.375,1.242V193.6a1.314,1.314,0,0,0,1.375,1.242h13.58a1.314,1.314,0,0,0,1.375-1.242V181.33A1.316,1.316,0,0,0,56.649,180.105Zm-1.375,12.266H44.412v-9.815H55.274Z" transform="translate(-22.868 -97.519)"/><path class="a" d="M147.655,180.105H85.189a1.314,1.314,0,0,0-1.375,1.242V193.6a1.314,1.314,0,0,0,1.375,1.242h62.466a1.314,1.314,0,0,0,1.375-1.242V181.33A1.316,1.316,0,0,0,147.655,180.105Zm-1.375,12.266H86.546v-9.815H146.3Z" transform="translate(-45.972 -97.519)"/></g></g></svg>