<svg xmlns="http://www.w3.org/2000/svg" xmlns:xlink="http://www.w3.org/1999/xlink" width="220" height="220" viewBox="0 0 220 220"><defs><style>.a{fill:#efc25f}.b{opacity:0.5;clip-path:url(#a);}.c,.d{fill:#efc25f;}.d{stroke:#efc25f;stroke-miterlimit:10;stroke-width:1.015px;}</style><clipPath id="a"><rect class="a" width="220" height="220" rx="4" transform="translate(-0.046 0.331)"/></clipPath></defs><g class="a" transform="translate(0.046 -0.331)"><g transform="translate(110.34 -10.714)"><path class="c" d="M122.819,48.032a8.422,8.422,0,0,0-6.105-6.011V37.34a8.319,8.319,0,0,0,0-16.176V16.446a8.369,8.369,0,0,0,6.349-8.792,8.517,8.517,0,0,0-16.69-1.386h-4.782a8.52,8.52,0,0,0-16.437,0H80.373a8.525,8.525,0,0,0-16.442,0H59.154a8.525,8.525,0,0,0-16.442,0H37.954a8.525,8.525,0,0,0-16.442,0h-4.8A8.479,8.479,0,0,0,7.782.038,8.422,8.422,0,0,0,.039,7.656a8.364,8.364,0,0,0,6.332,8.79v4.7a8.319,8.319,0,0,0,0,16.176v4.7a8.319,8.319,0,0,0,0,16.176v4.7a8.319,8.319,0,0,0,0,16.176V83.79a8.315,8.315,0,0,0,0,16.171v4.7a8.331,8.331,0,0,0,1.413,16.408,8.479,8.479,0,0,0,8.933-6.235h4.777a8.525,8.525,0,0,0,16.442,0h4.777a8.525,8.525,0,0,0,16.442,0h4.777a8.525,8.525,0,0,0,16.442,0h4.8a8.52,8.52,0,0,0,16.437,0h4.782a8.508,8.508,0,0,0,16.668-1.388,8.36,8.36,0,0,0-6.327-8.785V99.947a8.315,8.315,0,0,0,0-16.171v-4.7a8.319,8.319,0,0,0,0-16.176V58.2A8.332,8.332,0,0,0,122.819,48.032Zm-8.225,18.776a4.177,4.177,0,1,1,0,8.352,2.138,2.138,0,0,0-1.5.611,2.069,2.069,0,0,0-.621,1.479v8.361a2.108,2.108,0,0,0,2.125,2.09,4.174,4.174,0,0,1,0,8.347,2.108,2.108,0,0,0-2.125,2.09v8.347a2.069,2.069,0,0,0,.621,1.479,2.138,2.138,0,0,0,1.5.611,4.177,4.177,0,1,1-4.245,4.176,2.069,2.069,0,0,0-.621-1.479,2.138,2.138,0,0,0-1.5-.611H99.74a2.108,2.108,0,0,0-2.125,2.09,4.248,4.248,0,0,1-8.485,0,2.107,2.107,0,0,0-2.111-2.095h-8.5a2.138,2.138,0,0,0-1.5.611,2.069,2.069,0,0,0-.621,1.479,4.245,4.245,0,0,1-8.489,0,2.069,2.069,0,0,0-.619-1.478,2.138,2.138,0,0,0-1.5-.612H57.3a2.138,2.138,0,0,0-1.5.612,2.069,2.069,0,0,0-.619,1.478,4.245,4.245,0,0,1-8.489,0,2.069,2.069,0,0,0-.619-1.478,2.138,2.138,0,0,0-1.5-.612H36.1a2.138,2.138,0,0,0-1.5.612,2.069,2.069,0,0,0-.619,1.478,4.245,4.245,0,0,1-8.489,0,2.069,2.069,0,0,0-.627-1.486,2.138,2.138,0,0,0-1.516-.6H14.861a2.138,2.138,0,0,0-1.5.612,2.069,2.069,0,0,0-.619,1.478A4.245,4.245,0,1,1,8.5,108.572a2.138,2.138,0,0,0,1.5-.612,2.069,2.069,0,0,0,.619-1.478V98.126a2.108,2.108,0,0,0-2.12-2.09A4.261,4.261,0,0,1,4.7,93.989a4.118,4.118,0,0,1,0-4.255A4.261,4.261,0,0,1,8.5,87.688a2.108,2.108,0,0,0,2.12-2.077V77.25A2.069,2.069,0,0,0,10,75.773a2.138,2.138,0,0,0-1.5-.612,4.177,4.177,0,1,1,0-8.352,2.1,2.1,0,0,0,2.12-2.086V56.371A2.1,2.1,0,0,0,8.5,54.285a4.177,4.177,0,1,1,0-8.352,2.1,2.1,0,0,0,2.12-2.086V35.518A2.1,2.1,0,0,0,8.5,33.432a4.177,4.177,0,1,1,0-8.352,2.1,2.1,0,0,0,2.12-2.086V14.62A2.1,2.1,0,0,0,8.5,12.534a4.177,4.177,0,1,1,4.245-4.176,2.1,2.1,0,0,0,2.12,2.086H23.35a2.1,2.1,0,0,0,2.106-2.086,4.245,4.245,0,0,1,8.489,0,2.069,2.069,0,0,0,.634,1.488,2.139,2.139,0,0,0,1.523.6h8.466a2.1,2.1,0,0,0,2.12-2.086,4.245,4.245,0,0,1,8.489,0,2.1,2.1,0,0,0,2.12,2.086h8.489a2.1,2.1,0,0,0,2.12-2.086,4.245,4.245,0,0,1,8.489,0,2.069,2.069,0,0,0,.623,1.476,2.138,2.138,0,0,0,1.5.609h8.5a2.108,2.108,0,0,0,2.125-2.086,4.161,4.161,0,0,1,2.08-3.731,4.3,4.3,0,0,1,4.325,0,4.161,4.161,0,0,1,2.08,3.731,2.108,2.108,0,0,0,2.125,2.086h8.485a2.138,2.138,0,0,0,1.5-.609,2.069,2.069,0,0,0,.623-1.476,4.245,4.245,0,1,1,4.245,4.176,2.138,2.138,0,0,0-1.505.608,2.069,2.069,0,0,0-.624,1.478v8.352a2.1,2.1,0,0,0,2.115,2.072,4.177,4.177,0,1,1,0,8.352,2.137,2.137,0,0,0-1.509.625,2.068,2.068,0,0,0-.606,1.5v8.329a2.069,2.069,0,0,0,.623,1.476,2.138,2.138,0,0,0,1.5.609,4.177,4.177,0,1,1,0,8.352,2.138,2.138,0,0,0-1.5.609,2.069,2.069,0,0,0-.623,1.476v8.352a2.1,2.1,0,0,0,2.115,2.086Z" transform="translate(0.005 0.005)"/><path class="d" d="M122.549,76.307H114.7a3.014,3.014,0,0,1-2.781-1.9,3.126,3.126,0,0,1,.652-3.352l5.555-5.673a4.482,4.482,0,0,0,0-6.24l-7.082-7.214a4.354,4.354,0,0,0-6.105,0L99.386,57.6a2.968,2.968,0,0,1-3.282.666,3.079,3.079,0,0,1-1.861-2.84V47.389a4.37,4.37,0,0,0-4.319-4.406H79.931a4.365,4.365,0,0,0-4.319,4.406v8.037a3.079,3.079,0,0,1-1.861,2.84,2.968,2.968,0,0,1-3.282-.666l-5.555-5.673a4.359,4.359,0,0,0-6.11,0l-7.064,7.224a4.482,4.482,0,0,0,0,6.24L57.3,71.064a3.126,3.126,0,0,1,.652,3.352,3.014,3.014,0,0,1-2.781,1.9H47.3a4.366,4.366,0,0,0-4.314,4.411V90.939A4.37,4.37,0,0,0,47.3,95.354h7.869a3.014,3.014,0,0,1,2.781,1.9,3.126,3.126,0,0,1-.652,3.352l-5.555,5.673a4.478,4.478,0,0,0,0,6.236l7.073,7.224a4.35,4.35,0,0,0,6.11,0l5.555-5.673a2.968,2.968,0,0,1,3.282-.666,3.079,3.079,0,0,1,1.861,2.84v8.013a4.365,4.365,0,0,0,4.319,4.411h10a4.365,4.365,0,0,0,4.319-4.411v-8.023a3.079,3.079,0,0,1,1.861-2.84,2.968,2.968,0,0,1,3.282.666l5.555,5.673a4.359,4.359,0,0,0,6.11,0l7.073-7.224a4.478,4.478,0,0,0,0-6.236l-5.555-5.673a3.126,3.126,0,0,1-.651-3.354,3.013,3.013,0,0,1,2.785-1.9h7.846a4.37,4.37,0,0,0,4.319-4.411V80.718a4.459,4.459,0,0,0-1.27-3.124,4.273,4.273,0,0,0-3.063-1.287Zm1.213,14.627a1.226,1.226,0,0,1-1.213,1.234H114.7a6.119,6.119,0,0,0-5.68,3.862,6.347,6.347,0,0,0,1.353,6.831l5.555,5.673a1.257,1.257,0,0,1,0,1.749l-7.073,7.224a1.2,1.2,0,0,1-1.713,0l-5.555-5.673a6.026,6.026,0,0,0-6.67-1.356,6.253,6.253,0,0,0-3.777,5.776v8.013a1.226,1.226,0,0,1-1.208,1.239h-10a1.231,1.231,0,0,1-1.213-1.239v-8.037a6.148,6.148,0,0,0-3.777-5.772,6.017,6.017,0,0,0-2.379-.473,5.955,5.955,0,0,0-4.277,1.825l-5.555,5.673a1.19,1.19,0,0,1-1.713,0l-7.082-7.228a1.262,1.262,0,0,1,0-1.754l5.555-5.673a6.347,6.347,0,0,0,1.328-6.81,6.12,6.12,0,0,0-5.652-3.86H47.3a1.221,1.221,0,0,1-1.208-1.234V80.718A1.226,1.226,0,0,1,47.3,79.479h7.869A6.12,6.12,0,0,0,60.8,75.622a6.348,6.348,0,0,0-1.313-6.8l-5.555-5.673a1.257,1.257,0,0,1,0-1.749l7.078-7.233a1.195,1.195,0,0,1,1.717,0l5.555,5.673A6.027,6.027,0,0,0,74.952,61.2a6.252,6.252,0,0,0,3.779-5.772V47.389a1.226,1.226,0,0,1,1.213-1.234h10a1.2,1.2,0,0,1,.857.36,1.247,1.247,0,0,1,.355.874v8.037a6.252,6.252,0,0,0,3.781,5.782,6.027,6.027,0,0,0,6.675-1.367l5.555-5.673a1.2,1.2,0,0,1,1.713,0l7.073,7.224a1.257,1.257,0,0,1,0,1.749L110.4,68.814a6.347,6.347,0,0,0-1.322,6.808,6.12,6.12,0,0,0,5.65,3.857h7.846a1.231,1.231,0,0,1,1.213,1.239Z" transform="translate(-23.382 -25.272)"/><path class="d" d="M118.341,104.321c-7.72,0-13.979,5.655-13.979,12.632s6.259,12.632,13.979,12.632,13.979-5.655,13.979-12.632S126.057,104.33,118.341,104.321Zm0,22.457a10.946,10.946,0,0,1-10.06-6.058,9.146,9.146,0,0,1,2.353-10.715,11.734,11.734,0,0,1,11.858-2.127,9.867,9.867,0,0,1,6.7,9.091C129.178,122.38,124.328,126.762,118.341,126.778Z" transform="translate(-56.775 -56.402)"/></g></g></svg>
