<svg xmlns="http://www.w3.org/2000/svg" width="69.351" height="35.35" viewBox="0 0 69.351 35.35"><defs><style>.a{fill:#242128;stroke:#242128;stroke-miterlimit:10;stroke-width:0.35px;}</style></defs><g transform="translate(0.176 0.175)"><path class="a" d="M6.491,11.3V3.578a.612.612,0,0,0-.107-.424.575.575,0,0,0-.4-.109h-.7a2.925,2.925,0,0,0-.765.083,2.227,2.227,0,0,0-.83.345,4.419,4.419,0,0,0-.832.7L2.35,4.76a.672.672,0,0,1-.482.287.41.41,0,0,1-.283-.109.348.348,0,0,1-.125-.276.786.786,0,0,1,.1-.334L2.92,1.794a.538.538,0,0,1,.463-.3.429.429,0,0,1,.3.083l.183.167a.874.874,0,0,0,.616.167h7.184a2.225,2.225,0,0,0,.368-.016,1.094,1.094,0,0,0,.283-.209.633.633,0,0,1,.389-.192.371.371,0,0,1,.232.063,1.221,1.221,0,0,1,.232.355L14.391,4.4a.589.589,0,0,1,.067.264.352.352,0,0,1-.127.264.445.445,0,0,1-.311.116.709.709,0,0,1-.482-.317L13.1,4.195a4.866,4.866,0,0,0-.667-.649,2.943,2.943,0,0,0-1.673-.5h-.8c-.368,0-.552.16-.552.484v8.655a1.159,1.159,0,0,0,.083.417.521.521,0,0,0,.463.4,1.017,1.017,0,0,1,.463.134.463.463,0,0,1,.09.334c0,.29-.2.436-.6.436H5.941c-.4,0-.6-.151-.6-.463,0-.246.153-.387.463-.426s.5-.139.577-.3A2.936,2.936,0,0,0,6.5,11.673Z" transform="translate(-1.46 -1.49)"/><path class="a" d="M62.644,2.54V7.87l.049.116.067-.065a4.526,4.526,0,0,1,1.251-1.136,2.7,2.7,0,0,1,1.335-.334,2.321,2.321,0,0,1,2.387,2.137l.8,4a2.4,2.4,0,0,0,.292.841,1.036,1.036,0,0,0,.584.317c.285.072.426.209.426.408,0,.246-.151.368-.45.368H65.5c-.3,0-.45-.127-.45-.385a.419.419,0,0,1,.049-.232c.032-.051.155-.1.368-.158a.568.568,0,0,0,.463-.552v-.116l-.1-.5L65.292,9.5c-.155-.825-.547-1.235-1.173-1.235a1.39,1.39,0,0,0-1.05.463,1.566,1.566,0,0,0-.426,1.11v2.748a2.892,2.892,0,0,0,.067.76.6.6,0,0,0,.232.232,1.854,1.854,0,0,0,.482.183.364.364,0,0,1,.322.366c0,.257-.155.385-.463.385H59.406c-.3,0-.45-.127-.45-.385a.322.322,0,0,1,.074-.232.762.762,0,0,1,.324-.144.811.811,0,0,0,.584-.406,1.238,1.238,0,0,0,.051-.266c0-.111.016-.278.016-.5V5.164q0-.767-.5-.9l-.167-.051a.382.382,0,0,1-.25-.366.311.311,0,0,1,.218-.317L62.275,2.29h.134C62.532,2.29,62.609,2.373,62.644,2.54Z" transform="translate(-45.632 -2.105)"/><path class="a" d="M112.389,24.578c-.132.032-.2.083-.2.148a1.708,1.708,0,0,0,.151.463,2.67,2.67,0,0,0,2.468,1.622,2.862,2.862,0,0,0,1.142-.232,3.919,3.919,0,0,0,1.1-.76.6.6,0,0,1,.366-.2c.232,0,.334.118.334.35a.667.667,0,0,1-.132.352,3.768,3.768,0,0,1-1.578,1.3,5.253,5.253,0,0,1-2.243.463,4.726,4.726,0,0,1-3.288-1.159,3.879,3.879,0,0,1-1.284-3.013,4.171,4.171,0,0,1,1.221-3.043,4.1,4.1,0,0,1,3.045-1.244,4.171,4.171,0,0,1,1.87.41,3.8,3.8,0,0,1,1.39,1.175,5.794,5.794,0,0,1,.568.969,1.65,1.65,0,0,1,.167.533.2.2,0,0,1-.148.2Zm-.385-.9.134-.037,2.637-.86c.132-.056.2-.118.2-.185a2.318,2.318,0,0,0-.158-.542,2.626,2.626,0,0,0-.475-.795,1.562,1.562,0,0,0-1.219-.619,1.235,1.235,0,0,0-1.027.508,2.171,2.171,0,0,0-.392,1.36,3.179,3.179,0,0,0,.09.818q.093.343.209.343Z" transform="translate(-84.249 -15.422)"/><path class="a" d="M171.284,15.248q-.584,0-.584-.463c0-.232.167-.389.5-.433a1.041,1.041,0,0,0,.751-.417,2.89,2.89,0,0,0,.266-.433c.032-.067.107-.232.218-.484l3.87-9.411a1.345,1.345,0,0,1,.176-.308.315.315,0,0,1,.232-.058h2.018a.38.38,0,0,1,.232.051.781.781,0,0,1,.148.311l3.62,9.427c.1.257.162.412.183.463a2.085,2.085,0,0,0,.266.45,1.05,1.05,0,0,0,.76.417c.338.044.51.195.51.463s-.2.433-.6.433h-4.44c-.4,0-.6-.144-.6-.433s.178-.422.533-.463.535-.192.535-.463a2.137,2.137,0,0,0-.218-.869l-.232-.549c-.065-.134-.127-.273-.183-.417a.308.308,0,0,0-.067-.083,1.233,1.233,0,0,0-.517-.051h-3.689a1.159,1.159,0,0,0-.494.063l-.2.433-.232.616a2.918,2.918,0,0,0-.264.892.371.371,0,0,0,.116.3,1.059,1.059,0,0,0,.51.141.4.4,0,0,1,.392.443c0,.29-.195.433-.584.433Zm3.87-4.866c0,.2.111.3.334.3h2.769c.232,0,.352-.083.352-.25l-.051-.218-1.506-3.835a.854.854,0,0,0-.076-.167.146.146,0,0,0-.074-.051c-.046,0-.1.065-.169.2l-1.56,3.847Z" transform="translate(-131.481 -2.831)"/><path class="a" d="M233.647,20.017v1.226l.049.1c.023-.023.044-.046.067-.074a2.145,2.145,0,0,0,.116-.192,2.5,2.5,0,0,1,.9-.969A2.255,2.255,0,0,1,236,19.727a2.067,2.067,0,0,1,.765.132c.232.09.331.19.331.3a.35.35,0,0,1-.016.116,2.664,2.664,0,0,0-.148.317l-.25.718-.266.85c-.044.29-.165.433-.364.433a.292.292,0,0,1-.209-.058.551.551,0,0,1-.09-.276.824.824,0,0,0-.83-.735,1.117,1.117,0,0,0-.913.463,1.9,1.9,0,0,0-.366,1.217v2.781a1.726,1.726,0,0,0,.132.834,1.015,1.015,0,0,0,.609.315c.317.079.475.218.475.417q0,.368-.463.368h-4.106c-.3,0-.463-.13-.463-.385,0-.19.155-.322.463-.394a.813.813,0,0,0,.6-.394,1.209,1.209,0,0,0,.074-.285,3.244,3.244,0,0,0,.025-.487V22.566a.782.782,0,0,0-.517-.855l-.144-.049a.35.35,0,0,1-.266-.368.331.331,0,0,1,.218-.317l2.985-1.207.134-.049C233.535,19.72,233.612,19.815,233.647,20.017Z" transform="translate(-176.908 -15.495)"/><path class="a" d="M268.416,11.021h2.072c.1,0,.148.028.148.083l-.032.132-.232.619a.3.3,0,0,1-.3.2h-1.458c-.132,0-.2.079-.2.232v4.866q0,.927.779.927a1.39,1.39,0,0,0,.9-.308,1.159,1.159,0,0,1,.5-.292.308.308,0,0,1,.35.348.746.746,0,0,1-.232.429,3.758,3.758,0,0,1-2.781.908,3.6,3.6,0,0,1-1.669-.331,1,1,0,0,1-.633-.883l.032-.433a8.729,8.729,0,0,0,.134-1.622V12.288c0-.155-.072-.232-.218-.232h-.732c-.232,0-.35-.123-.35-.366,0-.2.174-.417.521-.651a8.111,8.111,0,0,0,1.39-1.159,9.107,9.107,0,0,0,1.219-1.462c.134-.246.292-.368.464-.368s.32.127.32.385Z" transform="translate(-203.536 -6.53)"/><path class="a" d="M17.914,91.015a1.05,1.05,0,0,1,.067.352c0,.243-.139.366-.417.366-.144,0-.294-.107-.45-.317a4.842,4.842,0,0,0-3.972-2.368,3.587,3.587,0,0,0-2.92,1.432,5.639,5.639,0,0,0-1.159,3.664,5.535,5.535,0,0,0,1.251,3.708,4.118,4.118,0,0,0,3.244,1.432,4.683,4.683,0,0,0,2-.429,3.736,3.736,0,0,0,1.485-1.226,2.188,2.188,0,0,1,.317-.38.371.371,0,0,1,.25-.1.5.5,0,0,1,.3.116.491.491,0,0,1,.167.348,1.691,1.691,0,0,1-.436.864,5.922,5.922,0,0,1-4.938,2.058A6.921,6.921,0,0,1,7.871,98.82a5.689,5.689,0,0,1-1.877-4.442,6.048,6.048,0,0,1,1.854-4.514,6.257,6.257,0,0,1,4.57-1.8,9.418,9.418,0,0,1,2.688.433l.463.1a.4.4,0,0,0,.25-.065.927.927,0,0,0,.192-.352.4.4,0,0,1,.41-.283.463.463,0,0,1,.3.083.841.841,0,0,1,.2.35Z" transform="translate(-4.941 -68.26)"/><path class="a" d="M69.895,109.684l-.2-.969q-.264-1.39-1.5-1.39a2.123,2.123,0,0,0-1.483.6l-.285.266a.679.679,0,0,1-.4.2.387.387,0,0,1-.257-.09.29.29,0,0,1-.109-.232.779.779,0,0,1,.183-.433,3.209,3.209,0,0,1,.517-.533,4.317,4.317,0,0,1,2.753-.927,2.852,2.852,0,0,1,3.138,2.285l.818,3.52q.283,1.3.834,1.3a.362.362,0,0,0,.366-.183l.067-.118.116-.032c.123,0,.185.1.185.317a1.112,1.112,0,0,1-.542.941,2.336,2.336,0,0,1-1.36.375,2.065,2.065,0,0,1-1.622-.649.83.83,0,0,0-.167-.167.232.232,0,0,1-.049-.035l-.1.035-.218.167a3.914,3.914,0,0,1-2.352.649,3.736,3.736,0,0,1-2.375-.765,2.317,2.317,0,0,1-.95-1.884,2.192,2.192,0,0,1,.95-1.854,4.147,4.147,0,0,1,2.5-.7,4,4,0,0,1,.751.051A6.067,6.067,0,0,1,69.895,109.684Zm.616,2.477-.355-1.52a1.805,1.805,0,0,0-1.18-.433,1.529,1.529,0,0,0-1.122.443,1.511,1.511,0,0,0-.447,1.126,1.682,1.682,0,0,0,1.719,1.719,1.648,1.648,0,0,0,.983-.285.83.83,0,0,0,.4-.7Z" transform="translate(-50.197 -82.306)"/><path class="a" d="M112.528,97.406H114.6c.1,0,.148.028.148.083l-.032.132-.232.619a.3.3,0,0,1-.3.2h-1.458c-.132,0-.2.079-.2.232v4.866q0,.927.781.927a1.39,1.39,0,0,0,.895-.292,1.159,1.159,0,0,1,.5-.292.308.308,0,0,1,.35.348.746.746,0,0,1-.232.429,3.753,3.753,0,0,1-2.781.908,3.627,3.627,0,0,1-1.669-.331,1,1,0,0,1-.633-.883l.032-.433a8.73,8.73,0,0,0,.134-1.622V98.673c0-.155-.072-.232-.218-.232h-.735c-.232,0-.35-.123-.35-.366,0-.2.174-.417.521-.651a8.11,8.11,0,0,0,1.39-1.159A9.106,9.106,0,0,0,111.74,94.8c.134-.246.292-.368.463-.368.213,0,.32.127.32.385Z" transform="translate(-83.772 -73.281)"/><path class="a" d="M144.219,109.684l-.2-.969q-.269-1.39-1.5-1.39a2.127,2.127,0,0,0-1.485.6l-.283.266a.7.7,0,0,1-.4.2.394.394,0,0,1-.26-.09.29.29,0,0,1-.109-.232.783.783,0,0,1,.185-.433,3.118,3.118,0,0,1,.517-.533,4.317,4.317,0,0,1,2.753-.927,2.852,2.852,0,0,1,3.138,2.285l.816,3.52q.285,1.3.834,1.3a.364.364,0,0,0,.368-.183l.067-.118.116-.032c.123,0,.183.1.183.317a1.112,1.112,0,0,1-.542.941,2.336,2.336,0,0,1-1.36.375,2.062,2.062,0,0,1-1.622-.649.987.987,0,0,0-.167-.167.192.192,0,0,1-.051-.035l-.1.035-.216.167a3.924,3.924,0,0,1-2.354.649,3.724,3.724,0,0,1-2.385-.751,2.317,2.317,0,0,1-.952-1.884,2.19,2.19,0,0,1,.952-1.854,4.134,4.134,0,0,1,2.5-.7,4,4,0,0,1,.751.051A5.96,5.96,0,0,1,144.219,109.684Zm.619,2.477-.348-1.511a1.812,1.812,0,0,0-1.182-.433,1.523,1.523,0,0,0-1.569,1.569,1.747,1.747,0,0,0,2.7,1.434.834.834,0,0,0,.4-.7Z" transform="translate(-107.286 -82.306)"/><path class="a" d="M186.6,88.94V98.986a2.632,2.632,0,0,0,.083.825c.056.139.232.248.517.324s.433.218.433.417c0,.246-.151.368-.45.368h-3.805c-.3,0-.45-.127-.45-.385a.345.345,0,0,1,.067-.25.811.811,0,0,1,.334-.134.862.862,0,0,0,.565-.4,1.075,1.075,0,0,0,.042-.232,4.3,4.3,0,0,0,.025-.552v-7.4q0-.769-.5-.9l-.167-.051a.382.382,0,0,1-.25-.366.311.311,0,0,1,.218-.317l2.952-1.237h.151C186.491,88.69,186.567,88.773,186.6,88.94Z" transform="translate(-140.876 -68.871)"/><path class="a" d="M209.062,110.313a3.835,3.835,0,0,1,1.319-3.013,4.968,4.968,0,0,1,3.4-1.159,5.121,5.121,0,0,1,3.571,1.3,4.185,4.185,0,0,1,1.434,3.23,3.432,3.432,0,0,1-1.319,2.832,5.568,5.568,0,0,1-3.571,1.047,5.123,5.123,0,0,1-3.495-1.173A3.863,3.863,0,0,1,209.062,110.313Zm4.171-3.3a1.541,1.541,0,0,0-1.059.375,1.685,1.685,0,0,0-.526,1.057,1.421,1.421,0,0,0-.067.45,5.891,5.891,0,0,0,.869,3.219,2.453,2.453,0,0,0,2.035,1.374,1.546,1.546,0,0,0,1.235-.5,2.086,2.086,0,0,0,.433-1.414,5.962,5.962,0,0,0-.491-2.271,4.815,4.815,0,0,0-1.193-1.808,1.8,1.8,0,0,0-1.235-.482Z" transform="translate(-160.951 -82.277)"/><path class="a" d="M260.325,105.235c-.357.167-.533.341-.533.517a.32.32,0,0,0,.266.317,4.128,4.128,0,0,0,1.034.083l1.536-.032,1.434-.051a3.212,3.212,0,0,1,1.951.565,1.738,1.738,0,0,1,.767,1.462,2.153,2.153,0,0,1-1.467,1.947,9.7,9.7,0,0,1-4.1.7,9.185,9.185,0,0,1-3.105-.417q-1.117-.417-1.105-1.184a1.089,1.089,0,0,1,.232-.635,1.548,1.548,0,0,1,.609-.5l.366-.2a.669.669,0,0,0,.134-.134.31.31,0,0,0,.051-.083.232.232,0,0,0-.035-.049.613.613,0,0,0-.167-.118q-.751-.283-.751-.9a.9.9,0,0,1,.218-.584,1.527,1.527,0,0,1,.533-.419,1.622,1.622,0,0,1,.285-.158l.35-.16.382-.151a.653.653,0,0,0,.176-.083.9.9,0,0,0,.093-.083.2.2,0,0,1-.051-.032,1.158,1.158,0,0,0-.25-.118,2.206,2.206,0,0,1-1.193-.809,2.25,2.25,0,0,1-.443-1.39A2.419,2.419,0,0,1,258.7,100.4a5.674,5.674,0,0,1,3.17-.769h.167c.19,0,.306-.021.35-.067a.945.945,0,0,0,.185-.4l.148-.417a1.647,1.647,0,0,1,.667-.8,1.919,1.919,0,0,1,1.068-.317,1.622,1.622,0,0,1,.976.26.806.806,0,0,1,.359.7q0,.614-.8.616a1.327,1.327,0,0,1-.232-.025c-.09-.016-.155-.03-.2-.042l-.382-.116a.757.757,0,0,0-.334-.067.547.547,0,0,0-.552.554c0,.111.067.185.2.218q2.67.623,2.67,2.667a2.374,2.374,0,0,1-1.177,2.046,5.406,5.406,0,0,1-3.061.788h-.134l-.8-.1h-.464Zm.927,2.549h-.8c-.345-.065-.635-.109-.869-.134q-.7.519-.684,1a.934.934,0,0,0,.667.85,4.7,4.7,0,0,0,1.886.3,5.01,5.01,0,0,0,2.051-.345c.5-.232.751-.542.751-.927a.607.607,0,0,0-.283-.575,2.044,2.044,0,0,0-.969-.165h-1.752Zm.552-7.376a1.432,1.432,0,0,0-1.184.519,2.281,2.281,0,0,0-.417,1.467,2.246,2.246,0,0,0,.408,1.444,1.428,1.428,0,0,0,1.177.51,1.465,1.465,0,0,0,1.184-.519,2.1,2.1,0,0,0,.433-1.39,2.318,2.318,0,0,0-.426-1.478,1.409,1.409,0,0,0-1.168-.547Z" transform="translate(-197.781 -75.739)"/></g></svg>