<svg xmlns="http://www.w3.org/2000/svg" xmlns:xlink="http://www.w3.org/1999/xlink" width="220" height="220" viewBox="0 0 220 220"><defs><style>.a,.c{fill:#efc25f;}.b{opacity:0.5;clip-path:url(#a);}</style><clipPath id="a"><rect class="a" width="220" height="220" rx="4" transform="translate(0 -0.245)"/></clipPath></defs><g class="a" transform="translate(0 0.245)"><g transform="translate(49.529 -11.741)"><path class="c" d="M120.783,48.183a8.363,8.363,0,0,0-6-6.03v-4.7a8.386,8.386,0,0,0,0-16.226V16.5A8.378,8.378,0,1,0,104.61,6.288h-4.7a8.337,8.337,0,0,0-16.165,0h-4.7a8.341,8.341,0,0,0-16.169,0h-4.7A8.341,8.341,0,0,0,42,6.288h-4.68a8.341,8.341,0,0,0-16.169,0H16.44A8.354,8.354,0,1,0,6.266,16.5v4.714a8.386,8.386,0,0,0,0,16.226v4.714a8.386,8.386,0,0,0,0,16.226v4.714a8.386,8.386,0,0,0,0,16.226v4.733a8.381,8.381,0,0,0,0,16.222v4.719A8.373,8.373,0,1,0,16.44,115.2h4.7a8.341,8.341,0,0,0,16.169,0H42a8.341,8.341,0,0,0,16.169,0h4.7a8.341,8.341,0,0,0,16.169,0h4.716a8.337,8.337,0,0,0,16.165,0h4.7a8.349,8.349,0,1,0,10.169-10.205V100.26a8.381,8.381,0,0,0,0-16.222V79.32a8.386,8.386,0,0,0,0-16.226V58.379a8.371,8.371,0,0,0,5.991-10.2Zm-8.089,18.835a4.189,4.189,0,0,1,0,8.378,2.089,2.089,0,0,0-2.089,2.1V85.88a2.093,2.093,0,0,0,2.089,2.1,4.19,4.19,0,0,1,0,8.374,2.093,2.093,0,0,0-2.089,2.1v8.374a2.089,2.089,0,0,0,2.089,2.1,4.189,4.189,0,1,1-4.174,4.189,2.089,2.089,0,0,0-2.089-2.1H98.087a2.093,2.093,0,0,0-2.089,2.1,4.174,4.174,0,0,1-8.344,0,2.093,2.093,0,0,0-2.076-2.1H77.22a2.089,2.089,0,0,0-2.089,2.1,4.174,4.174,0,1,1-8.349,0A2.089,2.089,0,0,0,64.7,111H56.348a2.089,2.089,0,0,0-2.085,2.1,4.174,4.174,0,1,1-8.349,0A2.089,2.089,0,0,0,43.83,111H35.5a2.089,2.089,0,0,0-2.085,2.1,4.174,4.174,0,1,1-8.349,0,2.088,2.088,0,0,0-2.108-2.1H14.614a2.089,2.089,0,0,0-2.085,2.1,4.174,4.174,0,1,1-4.174-4.189,2.089,2.089,0,0,0,2.085-2.1V98.433a2.093,2.093,0,0,0-2.085-2.1,4.189,4.189,0,1,1,0-8.374A2.093,2.093,0,0,0,10.44,85.88V77.492a2.089,2.089,0,0,0-2.085-2.1,4.189,4.189,0,0,1,0-8.378,2.089,2.089,0,0,0,2.085-2.092V56.547a2.089,2.089,0,0,0-2.085-2.092,4.189,4.189,0,0,1,0-8.378,2.089,2.089,0,0,0,2.085-2.092V35.629a2.089,2.089,0,0,0-2.085-2.092,4.189,4.189,0,0,1,0-8.378,2.089,2.089,0,0,0,2.085-2.092v-8.4a2.089,2.089,0,0,0-2.085-2.092,4.189,4.189,0,1,1,4.174-4.189,2.089,2.089,0,0,0,2.085,2.092h8.349a2.089,2.089,0,0,0,2.071-2.092,4.174,4.174,0,1,1,8.349,0A2.088,2.088,0,0,0,35.5,10.477H43.83a2.089,2.089,0,0,0,2.085-2.092,4.174,4.174,0,1,1,8.349,0,2.089,2.089,0,0,0,2.085,2.092H64.7a2.089,2.089,0,0,0,2.085-2.092,4.174,4.174,0,1,1,8.349,0,2.089,2.089,0,0,0,2.089,2.092h8.358a2.093,2.093,0,0,0,2.089-2.092,4.175,4.175,0,1,1,8.344,0A2.093,2.093,0,0,0,98.1,10.477h8.344a2.089,2.089,0,0,0,2.089-2.092,4.174,4.174,0,1,1,4.174,4.189,2.089,2.089,0,0,0-2.094,2.092v8.378a2.089,2.089,0,0,0,2.08,2.079,4.189,4.189,0,0,1,0,8.378,2.089,2.089,0,0,0-2.08,2.129v8.355a2.089,2.089,0,0,0,2.089,2.092,4.189,4.189,0,0,1,0,8.378,2.089,2.089,0,0,0-2.089,2.092v8.378a2.089,2.089,0,0,0,2.08,2.092Z" transform="translate(0.005 0.005)"/><path class="c" d="M216.78,131.345H212.2a1.469,1.469,0,1,0,0,2.92h4.552a1.469,1.469,0,1,0,0-2.92Z" transform="translate(-116.148 -72.064)"/><path class="c" d="M216.627,110.848a1.737,1.737,0,0,0-2.226-.534l-3,1.55a1.38,1.38,0,0,0-.6,1.995,1.737,1.737,0,0,0,2.226.534l3-1.55A1.381,1.381,0,0,0,216.627,110.848Z" transform="translate(-116.159 -60.336)"/><path class="c" d="M216.031,150.479l-3-1.538a1.736,1.736,0,0,0-2.226.534,1.381,1.381,0,0,0,.6,1.995l3,1.55a1.738,1.738,0,0,0,2.228-.536,1.382,1.382,0,0,0-.6-2Z" transform="translate(-116.159 -81.502)"/><path class="c" d="M111.086,72.958c-1.611-7.677-3.787-11.407-6.664-11.407a3.255,3.255,0,0,0-1.58.413L42.9,89.5a1.783,1.783,0,0,0-1,1.643v12.836a1.793,1.793,0,0,0,1,1.643l8.795,4.043h0l4.215,1.937v11.187a4.885,4.885,0,0,0,4.643,5.078H75.393a4.885,4.885,0,0,0,4.648-5.078v-.1l22.793,10.456a3.189,3.189,0,0,0,1.575.418c2.877,0,5.053-3.734,6.664-11.412a127.18,127.18,0,0,0,2.139-24.605A126.024,126.024,0,0,0,111.086,72.958ZM76.79,122.8a1.434,1.434,0,0,1-1.366,1.494H60.571a1.434,1.434,0,0,1-1.366-1.494v-9.689l17.608,8.086v1.6ZM96.915,77.787a140.613,140.613,0,0,0-1.293,19.8,126.108,126.108,0,0,0,2.14,24.605,43.775,43.775,0,0,0,1.47,5.477L53.97,106.839V87.466a1.636,1.636,0,1,0-3.259,0v17.879L45.166,102.8V92.34L99.232,67.491a43.775,43.775,0,0,0-1.47,5.477c-.05.244-.1.5-.146.732m1.4,17.307a6.815,6.815,0,0,1,0,13.179c-.086-2.151-.132-4.361-.132-6.612s.046-4.436.132-6.577Zm8.895,30.371c-1.489,7.1-3.155,8.643-3.487,8.643h-.046l-.077-.04h-.041c-.546-.358-2-2.285-3.318-8.574A100.4,100.4,0,0,1,99.2,107.785c4.67-.661,8.167-5.011,8.167-10.162s-3.5-9.5-8.167-10.162a100.379,100.379,0,0,1,1.753-13.707c1.32-6.278,2.768-8.21,3.319-8.569l.141-.07h.023c.332,0,2,1.538,3.487,8.638a122.367,122.367,0,0,1,2.058,23.809,122.192,122.192,0,0,1-2.076,23.809Z" transform="translate(-23.114 -36.82)"/></g></g></svg>
