<svg xmlns="http://www.w3.org/2000/svg" xmlns:xlink="http://www.w3.org/1999/xlink" width="220" height="220" viewBox="0 0 220 220"><defs><style>.d{fill:#efc25f;}.b{opacity:0.5;clip-path:url(#a);}</style></defs><g class="d" transform="translate(-448 -2583)"><g transform="translate(494.004 2570.986)"><path class="c" d="M126.721,50.374a8.759,8.759,0,0,0-6.3-6.3V39.16a8.759,8.759,0,0,0,0-16.964V17.249A8.764,8.764,0,1,0,109.752,6.575h-4.933a8.754,8.754,0,0,0-16.959,0H82.926a8.759,8.759,0,0,0-16.964,0H61.034a8.759,8.759,0,0,0-16.964,0H39.16a8.759,8.759,0,0,0-16.964,0H17.249A8.759,8.759,0,1,0,6.575,17.249v4.929a8.759,8.759,0,0,0,0,16.964V44.07a8.759,8.759,0,0,0,0,16.964v4.929a8.759,8.759,0,0,0,0,16.964v4.948a8.754,8.754,0,0,0,0,16.959v4.933a8.759,8.759,0,1,0,10.674,10.669h4.929a8.759,8.759,0,0,0,16.964,0H44.07a8.759,8.759,0,0,0,16.964,0h4.929a8.759,8.759,0,0,0,16.964,0h4.948a8.754,8.754,0,0,0,16.959,0h4.933a8.754,8.754,0,1,0,10.669-10.669v-4.948a8.754,8.754,0,0,0,0-16.959V82.926a8.759,8.759,0,0,0,0-16.964V61.034a8.749,8.749,0,0,0,6.285-10.66Zm-8.487,19.691a4.379,4.379,0,1,1,0,8.759,2.187,2.187,0,0,0-2.192,2.192v8.768a2.192,2.192,0,0,0,2.192,2.192,4.379,4.379,0,0,1,0,8.754,2.192,2.192,0,0,0-2.192,2.192v8.754a2.187,2.187,0,0,0,2.192,2.192,4.379,4.379,0,1,1-4.379,4.379,2.187,2.187,0,0,0-2.192-2.192h-8.754a2.192,2.192,0,0,0-2.192,2.192,4.379,4.379,0,0,1-8.754,0,2.192,2.192,0,0,0-2.178-2.2H81.016a2.187,2.187,0,0,0-2.192,2.192,4.379,4.379,0,0,1-8.759,0,2.187,2.187,0,0,0-2.187-2.192H59.118a2.187,2.187,0,0,0-2.187,2.192,4.379,4.379,0,1,1-8.759,0,2.187,2.187,0,0,0-2.187-2.192H37.25a2.187,2.187,0,0,0-2.187,2.192,4.379,4.379,0,1,1-8.759,0,2.187,2.187,0,0,0-2.211-2.192H15.334a2.187,2.187,0,0,0-2.187,2.192,4.379,4.379,0,1,1-4.379-4.379,2.187,2.187,0,0,0,2.187-2.192v-8.764a2.192,2.192,0,0,0-2.187-2.192,4.379,4.379,0,1,1,0-8.754,2.192,2.192,0,0,0,2.187-2.178V81.016a2.187,2.187,0,0,0-2.187-2.192,4.379,4.379,0,1,1,0-8.759,2.187,2.187,0,0,0,2.187-2.187V59.118a2.187,2.187,0,0,0-2.187-2.187,4.379,4.379,0,1,1,0-8.759,2.187,2.187,0,0,0,2.187-2.187V37.25a2.187,2.187,0,0,0-2.187-2.187,4.379,4.379,0,1,1,0-8.759,2.187,2.187,0,0,0,2.187-2.187V15.334a2.187,2.187,0,0,0-2.187-2.187,4.379,4.379,0,1,1,4.379-4.379,2.187,2.187,0,0,0,2.187,2.187h8.759a2.187,2.187,0,0,0,2.173-2.187,4.379,4.379,0,1,1,8.759,0,2.187,2.187,0,0,0,2.226,2.187h8.735a2.187,2.187,0,0,0,2.187-2.187,4.379,4.379,0,1,1,8.759,0,2.187,2.187,0,0,0,2.187,2.187h8.759a2.187,2.187,0,0,0,2.187-2.187,4.379,4.379,0,0,1,8.759,0,2.187,2.187,0,0,0,2.192,2.187h8.768a2.192,2.192,0,0,0,2.192-2.187,4.379,4.379,0,1,1,8.754,0,2.192,2.192,0,0,0,2.192,2.187h8.754a2.187,2.187,0,0,0,2.192-2.187,4.379,4.379,0,1,1,4.379,4.379,2.187,2.187,0,0,0-2.2,2.187v8.759a2.187,2.187,0,0,0,2.183,2.173,4.379,4.379,0,1,1,0,8.759,2.187,2.187,0,0,0-2.183,2.226v8.735a2.187,2.187,0,0,0,2.192,2.187,4.379,4.379,0,0,1,0,8.759,2.187,2.187,0,0,0-2.192,2.187v8.759a2.187,2.187,0,0,0,2.183,2.187Z" transform="translate(0)"/><path class="d" d="M174.64,175.331a1.433,1.433,0,0,1-1.008-.415l-8.6-8.477a1.434,1.434,0,1,1,2.015-2.039l8.6,8.477a1.433,1.433,0,0,1-1.008,2.455Z" transform="translate(-69.573 -69.309)"/><path class="d" d="M163.318,164.209c-.864,0-8.5-.244-17.785-8.358-3.821-3.343-6.361-6.729-7.489-10.029a1.433,1.433,0,0,1,.349-1.481l6.4-6.333a1.433,1.433,0,0,1,1.466-.344c3.238,1.1,6.619,3.606,10.058,7.465,8.53,9.552,8.482,17.341,8.477,17.671a1.433,1.433,0,0,1-1.4,1.4Zm-22.241-18.483a23.151,23.151,0,0,0,6.342,7.971c6.361,5.554,11.777,7.078,14.328,7.493-.439-2.541-2.011-7.909-7.57-14.146a24.175,24.175,0,0,0-8.028-6.342Z" transform="translate(-58.313 -58.154)"/><path class="d" d="M65.207,74.452h-.053a1.461,1.461,0,0,1-1.032-.478c-2.627-3.071-5.1-6.051-7.331-8.9a1.433,1.433,0,0,1,.119-1.91l5.807-5.731a1.433,1.433,0,0,1,1.877-.119c2.866,2.216,5.9,4.656,8.974,7.255a1.435,1.435,0,0,1,.086,2.111l-7.441,7.355A1.433,1.433,0,0,1,65.207,74.452ZM59.839,64.308c1.7,2.14,3.529,4.356,5.454,6.6l5.253-5.177c-2.273-1.91-4.513-3.711-6.686-5.4Z" transform="translate(-23.874 -24.102)"/><path class="d" d="M37,132.013a1.433,1.433,0,0,1-1.337-1.944l11.128-29.08a1.4,1.4,0,0,1,.33-.506L86.194,61.827a1.433,1.433,0,0,1,2.015,0l18.229,18.048a1.433,1.433,0,0,1,0,2.035L67.373,120.565a1.433,1.433,0,0,1-.506.325L37.481,131.922a1.432,1.432,0,0,1-.506.091ZM49.372,102.3l-9.905,25.818,26.1-9.8,37.815-37.438L87.183,64.86Z" transform="translate(-15.036 -25.958)"/><path class="d" d="M142.16,77.906a1.433,1.433,0,0,1-1.008-.415l-18.21-18.034a1.433,1.433,0,0,1,0-2.035l6.075-6.018a1.433,1.433,0,0,1,2.015,0l18.234,18.048a1.43,1.43,0,0,1,0,2.035l-6.08,6.018a1.433,1.433,0,0,1-1.008.416ZM125.965,58.439,142.16,74.467l4.04-4L130,54.437Z" transform="translate(-51.783 -21.552)"/><path class="d" d="M152.686,65.729a1.433,1.433,0,0,1-1.008-.415L133.43,47.265a1.433,1.433,0,0,1,0-2.035l7.388-7.312a5.349,5.349,0,0,1,7.5,0l12.742,12.618a5.253,5.253,0,0,1,0,7.465l-7.383,7.312a1.433,1.433,0,0,1-1.008.415ZM136.477,46.248l16.209,16.033,6.361-6.309a2.388,2.388,0,0,0,0-3.4L146.3,39.954a2.479,2.479,0,0,0-3.472,0Z" transform="translate(-56.216 -15.379)"/><path class="d" d="M91.54,115.676a1.433,1.433,0,0,1-1.008-2.45l30.847-30.537a1.433,1.433,0,0,1,2.015,2.035L92.528,115.26a1.433,1.433,0,0,1-1.008.416Z" transform="translate(-38.085 -34.789)"/><path class="d" d="M77.329,145.493a1.433,1.433,0,0,1-1.008-2.45l9.117-9.026a1.433,1.433,0,0,1,2.015,2.035l-9.117,9.026a1.433,1.433,0,0,1-1.008.416Z" transform="translate(-32.079 -56.482)"/><path class="d" d="M37,174.148a1.433,1.433,0,0,1-1.337-1.944l3.9-10.177a1.433,1.433,0,0,1,2.345-.506l6.366,6.318a1.433,1.433,0,0,1-.478,2.355l-10.316,3.864a1.433,1.433,0,0,1-.478.091Zm4.451-9.05-1.972,5.158,5.206-1.958Z" transform="translate(-15.036 -68.093)"/><path class="d" d="M37,160.555a1.433,1.433,0,0,1-1.337-1.944l11.013-28.746a1.433,1.433,0,0,1,2.345-.506L67.048,147.2a1.433,1.433,0,0,1-.506,2.359l-29.061,10.9a1.433,1.433,0,0,1-.506.091ZM48.57,132.937,39.5,156.663l23.96-9Z" transform="translate(-15.036 -54.5)"/><path class="d" d="M65.178,75.453h0A1.471,1.471,0,0,1,64.161,75c-21.167-22.4-28.168-36.058-28.454-36.626a1.433,1.433,0,0,1,1.91-1.91c.573.282,14.371,7.207,37,28.135a1.433,1.433,0,0,1,.033,2.068l-8.468,8.382a1.433,1.433,0,0,1-1.008.416ZM41.027,41.731c3.615,5.655,11.07,16.2,24.19,30.236l6.361-6.3C57.394,52.682,46.729,45.3,41.027,41.731Z" transform="translate(-15.034 -15.355)"/><path class="d" d="M129.741,138.031a1.433,1.433,0,0,1-.955-.349c-4.212-3.611-8.358-7.3-12.322-10.984a1.433,1.433,0,0,1-.033-2.068l8.41-8.3a1.6,1.6,0,0,1,1.032-.415,1.433,1.433,0,0,1,1.017.449c3.7,3.926,7.422,8.028,11.075,12.2a1.433,1.433,0,0,1-.072,1.963l-7.164,7.092a1.433,1.433,0,0,1-1.008.416Zm-10.206-12.417c3.286,3.014,6.686,6.037,10.139,9.017l5.253-5.21c-3.009-3.42-6.065-6.786-9.108-10.029Z" transform="translate(-49.031 -48.992)"/></g></g></svg>
