<svg xmlns="http://www.w3.org/2000/svg" xmlns:xlink="http://www.w3.org/1999/xlink" width="220" height="220" viewBox="0 0 220 220"><defs><style>.a{fill:#efc25f;}</style><clipPath id="a"><rect class="a" width="220" height="220" rx="4" transform="translate(-0.108 -0.245)"/></clipPath></defs><g class="b" transform="translate(0.108 0.245)"><g transform="translate(48.132 -12.451)"><path class="a" d="M122.471,48.658a8.463,8.463,0,0,0-6.088-6.09V37.826a8.46,8.46,0,0,0,0-16.386V16.661A8.466,8.466,0,1,0,106.071,6.35H101.3a8.462,8.462,0,0,0-16.39,0H80.145a8.466,8.466,0,0,0-16.4,0H58.986a8.466,8.466,0,0,0-16.4,0H37.846a8.466,8.466,0,0,0-16.4,0H16.669A8.464,8.464,0,1,0,6.353,16.661v4.761a8.46,8.46,0,0,0,0,16.386v4.761a8.46,8.46,0,0,0,0,16.386v4.761a8.46,8.46,0,0,0,0,16.386v4.779a8.455,8.455,0,0,0,0,16.382v4.766a8.462,8.462,0,1,0,10.316,10.306h4.763a8.466,8.466,0,0,0,16.4,0h4.763a8.466,8.466,0,0,0,16.4,0H63.75a8.466,8.466,0,0,0,16.4,0h4.782a8.462,8.462,0,0,0,16.39,0h4.768A8.46,8.46,0,1,0,116.4,106.03V101.25a8.455,8.455,0,0,0,0-16.382V80.1a8.46,8.46,0,0,0,0-16.386V58.955a8.451,8.451,0,0,0,6.074-10.3Zm-8.2,19.021a4.23,4.23,0,1,1,0,8.461,2.113,2.113,0,0,0-2.119,2.118v8.47a2.118,2.118,0,0,0,2.119,2.117,4.23,4.23,0,0,1,0,8.456,2.118,2.118,0,0,0-2.119,2.118v8.456a2.113,2.113,0,0,0,2.119,2.118,4.23,4.23,0,1,1-4.233,4.23,2.113,2.113,0,0,0-2.119-2.117H99.457a2.118,2.118,0,0,0-2.119,2.117,4.233,4.233,0,0,1-8.461,0,2.118,2.118,0,0,0-2.1-2.122H78.3a2.113,2.113,0,0,0-2.119,2.118,4.233,4.233,0,0,1-8.465,0A2.113,2.113,0,0,0,65.6,112.1H57.135a2.113,2.113,0,0,0-2.114,2.118,4.233,4.233,0,0,1-8.465,0,2.113,2.113,0,0,0-2.114-2.118H36a2.113,2.113,0,0,0-2.114,2.118,4.233,4.233,0,0,1-8.465,0,2.113,2.113,0,0,0-2.137-2.117H14.818a2.113,2.113,0,0,0-2.114,2.118,4.233,4.233,0,1,1-4.233-4.23,2.113,2.113,0,0,0,2.114-2.117V99.4a2.118,2.118,0,0,0-2.114-2.117,4.23,4.23,0,1,1,0-8.456,2.118,2.118,0,0,0,2.114-2.1v-8.47A2.113,2.113,0,0,0,8.472,76.14a4.23,4.23,0,1,1,0-8.461,2.113,2.113,0,0,0,2.114-2.113V57.105a2.113,2.113,0,0,0-2.114-2.113,4.23,4.23,0,1,1,0-8.461,2.113,2.113,0,0,0,2.114-2.113V35.981a2.113,2.113,0,0,0-2.114-2.113,4.23,4.23,0,1,1,0-8.461,2.113,2.113,0,0,0,2.114-2.113V14.811A2.113,2.113,0,0,0,8.472,12.7,4.23,4.23,0,1,1,12.7,8.467a2.113,2.113,0,0,0,2.114,2.113h8.465a2.113,2.113,0,0,0,2.1-2.113,4.233,4.233,0,0,1,8.465,0A2.113,2.113,0,0,0,36,10.58h8.442a2.113,2.113,0,0,0,2.114-2.113,4.233,4.233,0,0,1,8.465,0,2.113,2.113,0,0,0,2.114,2.113H65.6a2.113,2.113,0,0,0,2.114-2.113,4.233,4.233,0,0,1,8.465,0A2.113,2.113,0,0,0,78.3,10.58h8.474a2.118,2.118,0,0,0,2.119-2.113,4.233,4.233,0,1,1,8.461,0,2.118,2.118,0,0,0,2.119,2.113h8.461a2.113,2.113,0,0,0,2.119-2.113,4.233,4.233,0,1,1,4.233,4.23,2.113,2.113,0,0,0-2.123,2.113v8.461a2.113,2.113,0,0,0,2.109,2.1,4.23,4.23,0,1,1,0,8.461,2.113,2.113,0,0,0-2.109,2.15v8.438a2.113,2.113,0,0,0,2.119,2.113,4.23,4.23,0,1,1,0,8.461,2.113,2.113,0,0,0-2.119,2.113v8.461a2.113,2.113,0,0,0,2.109,2.113Z" transform="translate(0.005 0.005)"/><path class="a" d="M122.367,46.7h-2.811V43.759a1.407,1.407,0,1,0-2.811,0V46.7h-8.428V43.759a1.4,1.4,0,1,0-2.806,0V46.7H97.077V43.759a1.4,1.4,0,1,0-2.806,0V46.7H85.838V43.759a1.407,1.407,0,1,0-2.811,0V46.7H74.6V43.759a1.407,1.407,0,1,0-2.811,0V46.7H63.364V43.759a1.407,1.407,0,1,0-2.811,0V46.7h-8.41V43.759a1.4,1.4,0,1,0-2.806,0V46.7H46.507a4.316,4.316,0,0,0-4.214,4.411V126.1a4.316,4.316,0,0,0,4.214,4.411h75.86a4.316,4.316,0,0,0,4.214-4.411V51.112A4.316,4.316,0,0,0,122.367,46.7Zm1.385,79.4a1.418,1.418,0,0,1-1.385,1.449H46.507a1.418,1.418,0,0,1-1.385-1.449V62.876h80.051a1.473,1.473,0,0,0,0-2.942H45.1V51.112a1.418,1.418,0,0,1,1.385-1.449h75.883a1.418,1.418,0,0,1,1.385,1.449Z" transform="translate(-23.061 -25.059)"/><path class="a" d="M58.139,64.305a1.171,1.171,0,0,0-.308,1.38,1.48,1.48,0,0,0,2.611,0,1.171,1.171,0,0,0-.308-1.38A1.606,1.606,0,0,0,58.139,64.305Z" transform="translate(-31.476 -34.821)"/><path class="a" d="M82.892,64.309a1.151,1.151,0,0,0,.024,1.744,1.5,1.5,0,0,0,1.946,0,1.151,1.151,0,0,0,.024-1.744A1.617,1.617,0,0,0,82.892,64.309Z" transform="translate(-44.99 -34.827)"/><path class="a" d="M107.6,64.309a1.151,1.151,0,0,0,.027,1.742,1.5,1.5,0,0,0,1.945,0,1.151,1.151,0,0,0,.027-1.742,1.622,1.622,0,0,0-2,0Z" transform="translate(-58.468 -34.826)"/><path class="a" d="M132.322,64.309a1.151,1.151,0,0,0,.024,1.744,1.5,1.5,0,0,0,1.946,0,1.151,1.151,0,0,0,.024-1.744A1.617,1.617,0,0,0,132.322,64.309Z" transform="translate(-71.946 -34.827)"/><path class="a" d="M157.042,64.309a1.151,1.151,0,0,0,.024,1.744,1.5,1.5,0,0,0,1.946,0,1.151,1.151,0,0,0,.024-1.744A1.616,1.616,0,0,0,157.042,64.309Z" transform="translate(-85.426 -34.827)"/><path class="a" d="M181.762,64.309a1.151,1.151,0,0,0,.024,1.744,1.5,1.5,0,0,0,1.946,0,1.151,1.151,0,0,0,.024-1.744A1.617,1.617,0,0,0,181.762,64.309Z" transform="translate(-98.907 -34.827)"/><path class="a" d="M206.482,64.309a1.151,1.151,0,0,0,.024,1.744,1.5,1.5,0,0,0,1.946,0,1.151,1.151,0,0,0,.024-1.744A1.617,1.617,0,0,0,206.482,64.309Z" transform="translate(-112.388 -34.827)"/><path class="a" d="M125.445,100.991H63.631a2.677,2.677,0,0,0-2.811,2.519v37.763a2.387,2.387,0,0,0,.817,1.79,2.98,2.98,0,0,0,1.994.741h61.814a2.678,2.678,0,0,0,2.811-2.515V103.51A2.677,2.677,0,0,0,125.445,100.991ZM77.681,141.273H63.631v-7.552h14.05Zm0-10.07H63.631v-7.552h14.05Zm0-10.07H63.631V113.58h14.05Zm0-10.07H63.631V103.51h14.05Zm15.453,30.211H80.492v-7.552H93.135Zm0-10.07H80.492v-7.552H93.135Zm0-10.07H80.492V113.58H93.135Zm0-10.07H80.492V103.51H93.135Zm15.453,30.211H95.941v-7.552h12.647Zm0-10.07H95.941v-7.552h12.647Zm0-10.07H95.941V113.58h12.647Zm0-10.07H95.941V103.51h12.647Zm16.857,30.211h-14.05v-7.552h14.05Zm0-10.07h-14.05v-7.552h14.05Zm0-10.07h-14.05V113.58h14.05Zm0-10.07h-14.05V103.51h14.05Z" transform="translate(-33.165 -52.068)"/></g></g></svg>
