<svg xmlns="http://www.w3.org/2000/svg" xmlns:xlink="http://www.w3.org/1999/xlink" width="220" height="220" viewBox="0 0 220 220"><defs><style>.a,.c{fill:#efc25f;}.b{opacity:0.5;clip-path:url(#a);}.c{stroke:#efc25f;stroke-miterlimit:10;}</style><clipPath id="a"><rect class="a" width="220" height="220" rx="4" transform="translate(-0.154 -0.399)"/></clipPath></defs><g class="a" transform="translate(0.154 0.399)"><g transform="translate(48.846 -12.384)"><path class="a" d="M122.242,48.321a8.426,8.426,0,0,0-6.077-6.047v-4.71a8.39,8.39,0,0,0,0-16.273V16.545A8.415,8.415,0,1,0,105.873,6.306h-4.759a8.457,8.457,0,0,0-16.36,0H79.995a8.461,8.461,0,0,0-16.364,0H58.876a8.461,8.461,0,0,0-16.364,0H37.775a8.461,8.461,0,0,0-16.364,0H16.638a8.441,8.441,0,1,0-10.3,10.239v4.728a8.39,8.39,0,0,0,0,16.273v4.728a8.39,8.39,0,0,0,0,16.273v4.728a8.39,8.39,0,0,0,0,16.273v4.746a8.386,8.386,0,0,0,0,16.268v4.732a8.41,8.41,0,1,0,10.3,10.235h4.755a8.461,8.461,0,0,0,16.364,0h4.755a8.461,8.461,0,0,0,16.364,0H63.63a8.461,8.461,0,0,0,16.364,0h4.773a8.457,8.457,0,0,0,16.36,0h4.759a8.437,8.437,0,1,0,10.292-10.235v-4.746a8.386,8.386,0,0,0,0-16.268V79.546a8.39,8.39,0,0,0,0-16.273V58.546A8.389,8.389,0,0,0,122.242,48.321Zm-8.187,18.889a4.2,4.2,0,1,1,0,8.4,2.116,2.116,0,0,0-1.5.615,2.092,2.092,0,0,0-.618,1.488v8.411a2.109,2.109,0,0,0,2.115,2.1,4.2,4.2,0,0,1,0,8.4,2.109,2.109,0,0,0-2.115,2.1v8.4a2.092,2.092,0,0,0,.618,1.488,2.116,2.116,0,0,0,1.5.615,4.2,4.2,0,1,1-4.225,4.2,2.092,2.092,0,0,0-.618-1.488,2.116,2.116,0,0,0-1.5-.615H99.271a2.109,2.109,0,0,0-2.115,2.1,4.226,4.226,0,0,1-8.445,0,2.109,2.109,0,0,0-2.1-2.107H78.152a2.116,2.116,0,0,0-1.5.615,2.092,2.092,0,0,0-.618,1.488,4.225,4.225,0,0,1-8.449,0,2.092,2.092,0,0,0-.616-1.487,2.116,2.116,0,0,0-1.494-.616H57.028a2.116,2.116,0,0,0-1.494.616,2.092,2.092,0,0,0-.616,1.487,4.225,4.225,0,0,1-8.449,0,2.092,2.092,0,0,0-.616-1.487,2.116,2.116,0,0,0-1.494-.616H35.932a2.116,2.116,0,0,0-1.494.616,2.092,2.092,0,0,0-.616,1.487,4.225,4.225,0,0,1-8.449,0,2.092,2.092,0,0,0-.625-1.495,2.116,2.116,0,0,0-1.509-.608H14.791a2.116,2.116,0,0,0-1.494.616,2.092,2.092,0,0,0-.616,1.487,4.225,4.225,0,1,1-4.225-4.2,2.116,2.116,0,0,0,1.494-.616,2.092,2.092,0,0,0,.616-1.487V98.714a2.109,2.109,0,0,0-2.11-2.1,4.23,4.23,0,0,1-3.775-2.058,4.181,4.181,0,0,1,0-4.281,4.23,4.23,0,0,1,3.775-2.058,2.109,2.109,0,0,0,2.11-2.089V77.714a2.092,2.092,0,0,0-.616-1.487,2.116,2.116,0,0,0-1.494-.616,4.2,4.2,0,1,1,0-8.4,2.1,2.1,0,0,0,2.11-2.1v-8.4a2.1,2.1,0,0,0-2.11-2.1,4.2,4.2,0,1,1,0-8.4,2.1,2.1,0,0,0,2.11-2.1V35.731a2.1,2.1,0,0,0-2.11-2.1,4.2,4.2,0,1,1,0-8.4,2.1,2.1,0,0,0,2.11-2.1V14.708a2.1,2.1,0,0,0-2.11-2.1,4.2,4.2,0,1,1,4.225-4.2,2.1,2.1,0,0,0,2.11,2.1H23.24a2.1,2.1,0,0,0,2.1-2.1,4.225,4.225,0,0,1,8.449,0,2.093,2.093,0,0,0,.631,1.5,2.116,2.116,0,0,0,1.516.6h8.426a2.1,2.1,0,0,0,2.11-2.1,4.225,4.225,0,0,1,8.449,0,2.1,2.1,0,0,0,2.11,2.1h8.449a2.1,2.1,0,0,0,2.11-2.1,4.225,4.225,0,0,1,8.449,0,2.092,2.092,0,0,0,.62,1.485,2.116,2.116,0,0,0,1.5.613H86.61a2.109,2.109,0,0,0,2.115-2.1,4.2,4.2,0,0,1,2.07-3.754,4.245,4.245,0,0,1,4.305,0,4.2,4.2,0,0,1,2.07,3.754,2.109,2.109,0,0,0,2.115,2.1h8.445a2.116,2.116,0,0,0,1.5-.613,2.092,2.092,0,0,0,.62-1.485,4.225,4.225,0,1,1,4.225,4.2,2.116,2.116,0,0,0-1.5.611,2.092,2.092,0,0,0-.621,1.487v8.4a2.1,2.1,0,0,0,2.105,2.084,4.2,4.2,0,1,1,0,8.4,2.116,2.116,0,0,0-1.5.629,2.092,2.092,0,0,0-.6,1.506V44.11a2.092,2.092,0,0,0,.62,1.485,2.116,2.116,0,0,0,1.495.613,4.2,4.2,0,1,1,0,8.4,2.116,2.116,0,0,0-1.495.613,2.092,2.092,0,0,0-.62,1.485v8.4a2.1,2.1,0,0,0,2.105,2.1Z" transform="translate(0.005 0.005)"/><path class="c" d="M124.719,105.611a3.316,3.316,0,0,0-3.64.376L97.643,121.874a1.569,1.569,0,0,0-.438,2.07,1.34,1.34,0,0,0,1.926.47l23.432-15.847c.5-.332.769-.307.806-.282s.207.258.207.882a6.739,6.739,0,0,1-2.5,4.863L98.357,129.407c-1.207.822-2.3,1.045-3.027.619s-1.129-1.55-1.129-3.085c0-3.888,2.585-8.914,5.644-10.994L125.714,98.44a1.545,1.545,0,0,0,0-2.541L76.008,62.209a1.3,1.3,0,0,0-1.488,0L48.338,79.933C44.62,82.454,41.7,88.125,41.7,92.854v.792c0,4.729,2.916,10.4,6.634,12.921l38.939,26.366a1.34,1.34,0,0,0,1.926-.47,1.569,1.569,0,0,0-.438-2.07L49.826,104.046c-2.889-1.951-5.33-6.705-5.33-10.4v-.792c0-3.675,2.442-8.419,5.33-10.4l25.44-17.219,47.084,31.878L98.357,113.356c-3.9,2.635-6.947,8.577-6.947,13.53,0,2.7.921,4.729,2.571,5.71a4.2,4.2,0,0,0,2.179.594,6.687,6.687,0,0,0,3.686-1.3l22.717-15.377a9.784,9.784,0,0,0,3.8-7.4A3.9,3.9,0,0,0,124.719,105.611Z" transform="translate(-22.776 -36.672)"/><path class="a" d="M146.219,106.988a1.375,1.375,0,0,0,1.374-.9,1.193,1.193,0,0,0-.632-1.418l-32.25-18.265a1.489,1.489,0,0,0-1.923.392,1.183,1.183,0,0,0,.435,1.73l32.25,18.269A1.544,1.544,0,0,0,146.219,106.988Z" transform="translate(-61.483 -46.444)"/><path class="a" d="M156.344,130.513a1.375,1.375,0,0,0,1.374-.9,1.193,1.193,0,0,0-.632-1.418l-13.623-7.667a1.489,1.489,0,0,0-1.923.4,1.184,1.184,0,0,0,.44,1.73l13.623,7.684A1.529,1.529,0,0,0,156.344,130.513Z" transform="translate(-77.188 -65.503)"/><path class="a" d="M130.938,128.582a1.49,1.49,0,0,0-1.923.4,1.185,1.185,0,0,0,.445,1.73l13.729,7.709a1.5,1.5,0,0,0,.737.191,1.375,1.375,0,0,0,1.378-.9,1.194,1.194,0,0,0-.641-1.42Z" transform="translate(-70.348 -69.885)"/><path class="a" d="M86.482,94.436l-11.6,6.573a1.182,1.182,0,0,0,0,2.126L88.7,110.873a1.513,1.513,0,0,0,1.493,0l8.933-5.226a1.183,1.183,0,0,0,.415-1.737,1.492,1.492,0,0,0-1.93-.373l-8.187,4.8L78.24,102.075,87.21,97l11.02,6.217-1.285.746a1.183,1.183,0,0,0-.415,1.737,1.492,1.492,0,0,0,1.93.373l3.128-1.819a1.181,1.181,0,0,0,0-2.118l-13.6-7.7A1.513,1.513,0,0,0,86.482,94.436Z" transform="translate(-40.534 -50.977)"/><path class="a" d="M132.712,146.145a1.139,1.139,0,0,0,.174-.951,1.262,1.262,0,0,0-.634-.777l-13.821-7.738a1.474,1.474,0,0,0-1.9.4,1.173,1.173,0,0,0,.447,1.712L130.8,146.53a1.514,1.514,0,0,0,1.057.156,1.381,1.381,0,0,0,.864-.571Z" transform="translate(-63.53 -74.294)"/><path class="a" d="M63.4,119.931a1.139,1.139,0,0,0-.176.954,1.262,1.262,0,0,0,.637.779l34.138,19.094a1.5,1.5,0,0,0,.737.191,1.376,1.376,0,0,0,1.387-.9,1.2,1.2,0,0,0-.65-1.424L65.316,119.516a1.514,1.514,0,0,0-1.057-.156A1.381,1.381,0,0,0,63.4,119.931Z" transform="translate(-34.506 -64.223)"/></g></g></svg>
