<svg xmlns="http://www.w3.org/2000/svg" width="121.975" height="121.331" viewBox="0 0 121.975 121.331"><defs><style>.a{fill:#efc25f;}</style></defs><g transform="translate(0 0)"><path class="a" d="M121.688,48.117a8.389,8.389,0,0,0-6.049-6.022v-4.69a8.356,8.356,0,0,0,0-16.2V16.475a8.379,8.379,0,1,0-10.246-10.2h-4.738a8.418,8.418,0,0,0-16.286,0H79.632a8.422,8.422,0,0,0-16.29,0H58.609a8.422,8.422,0,0,0-16.29,0H37.6a8.422,8.422,0,0,0-16.29,0H16.563a8.4,8.4,0,1,0-10.25,10.2v4.708a8.356,8.356,0,0,0,0,16.2V42.1a8.356,8.356,0,0,0,0,16.2v4.708a8.356,8.356,0,0,0,0,16.2v4.726a8.351,8.351,0,0,0,0,16.2v4.713a8.374,8.374,0,1,0,10.25,10.192H21.3a8.422,8.422,0,0,0,16.29,0h4.733a8.422,8.422,0,0,0,16.29,0h4.733a8.422,8.422,0,0,0,16.29,0h4.751a8.418,8.418,0,0,0,16.286,0h4.738a8.4,8.4,0,1,0,10.246-10.192v-4.726a8.351,8.351,0,0,0,0-16.2V79.212a8.356,8.356,0,0,0,0-16.2V58.3A8.354,8.354,0,0,0,121.688,48.117Zm-8.15,18.809a4.183,4.183,0,1,1,0,8.367,2.106,2.106,0,0,0-1.49.612,2.084,2.084,0,0,0-.615,1.482v8.376a2.1,2.1,0,0,0,2.105,2.094,4.183,4.183,0,0,1,0,8.362,2.1,2.1,0,0,0-2.105,2.094v8.362a2.084,2.084,0,0,0,.615,1.482,2.106,2.106,0,0,0,1.49.612,4.183,4.183,0,1,1-4.206,4.183,2.084,2.084,0,0,0-.615-1.482,2.106,2.106,0,0,0-1.49-.612H98.821a2.1,2.1,0,0,0-2.105,2.094,4.206,4.206,0,0,1-8.407,0,2.1,2.1,0,0,0-2.091-2.1H77.8a2.106,2.106,0,0,0-1.49.612,2.084,2.084,0,0,0-.615,1.482,4.206,4.206,0,0,1-8.411,0,2.084,2.084,0,0,0-.614-1.48,2.106,2.106,0,0,0-1.487-.614H56.77a2.106,2.106,0,0,0-1.487.614,2.084,2.084,0,0,0-.614,1.48,4.206,4.206,0,0,1-8.411,0,2.084,2.084,0,0,0-.614-1.48,2.106,2.106,0,0,0-1.487-.614H35.77a2.106,2.106,0,0,0-1.487.614,2.084,2.084,0,0,0-.614,1.48,4.206,4.206,0,0,1-8.411,0,2.084,2.084,0,0,0-.622-1.489,2.106,2.106,0,0,0-1.5-.605H14.724a2.106,2.106,0,0,0-1.487.614,2.084,2.084,0,0,0-.614,1.48,4.206,4.206,0,1,1-4.206-4.183,2.106,2.106,0,0,0,1.487-.614,2.084,2.084,0,0,0,.614-1.48V98.3a2.1,2.1,0,0,0-2.1-2.094,4.211,4.211,0,0,1-3.758-2.05,4.164,4.164,0,0,1,0-4.263,4.211,4.211,0,0,1,3.758-2.05,2.1,2.1,0,0,0,2.1-2.08V77.387a2.084,2.084,0,0,0-.614-1.48,2.106,2.106,0,0,0-1.487-.614,4.183,4.183,0,1,1,0-8.367,2.1,2.1,0,0,0,2.1-2.089V56.47a2.1,2.1,0,0,0-2.1-2.089,4.183,4.183,0,1,1,0-8.367,2.1,2.1,0,0,0,2.1-2.089V35.581a2.1,2.1,0,0,0-2.1-2.089,4.183,4.183,0,1,1,0-8.367,2.1,2.1,0,0,0,2.1-2.089v-8.39a2.1,2.1,0,0,0-2.1-2.089,4.183,4.183,0,1,1,4.206-4.183,2.1,2.1,0,0,0,2.1,2.089h8.411a2.1,2.1,0,0,0,2.087-2.089,4.206,4.206,0,0,1,8.411,0,2.084,2.084,0,0,0,.628,1.491,2.106,2.106,0,0,0,1.509.6h8.388a2.1,2.1,0,0,0,2.1-2.089,4.206,4.206,0,0,1,8.411,0,2.1,2.1,0,0,0,2.1,2.089h8.411a2.1,2.1,0,0,0,2.1-2.089,4.206,4.206,0,0,1,8.411,0,2.084,2.084,0,0,0,.617,1.479,2.106,2.106,0,0,0,1.488.61h8.42a2.1,2.1,0,0,0,2.105-2.089,4.178,4.178,0,0,1,2.06-3.738,4.225,4.225,0,0,1,4.286,0,4.178,4.178,0,0,1,2.06,3.738,2.1,2.1,0,0,0,2.105,2.089h8.407a2.106,2.106,0,0,0,1.488-.61,2.084,2.084,0,0,0,.617-1.479,4.206,4.206,0,1,1,4.206,4.183,2.106,2.106,0,0,0-1.491.609,2.084,2.084,0,0,0-.618,1.481v8.367a2.1,2.1,0,0,0,2.1,2.076,4.183,4.183,0,1,1,0,8.367,2.106,2.106,0,0,0-1.5.626,2.084,2.084,0,0,0-.6,1.5v8.344a2.084,2.084,0,0,0,.617,1.479,2.106,2.106,0,0,0,1.488.61,4.183,4.183,0,1,1,0,8.367,2.106,2.106,0,0,0-1.488.61,2.084,2.084,0,0,0-.617,1.479v8.367A2.1,2.1,0,0,0,113.538,66.926Z" transform="translate(0.005 0.005)"/><path class="a" d="M132.951,56.988c-10.192-3.807-21.933-1.418-29.334,5.967a21.831,21.831,0,0,0-3.661,26.957c5.206,8.782,15.96,13.662,26.868,12.193s19.618-8.971,21.761-18.743C151.005,72.328,144.46,61.286,132.951,56.988Zm11.741,29.854c-3.62,7.907-12.156,13.067-21.629,13.074s-18.019-5.139-21.653-13.041-1.643-17,5.047-23.061h0a25.333,25.333,0,0,1,29.588-2.664c9.3,5.6,12.924,16.364,8.648,25.7Z" transform="translate(-52.438 -28.28)"/><path class="a" d="M116.243,52.569a30.8,30.8,0,0,0-43.286-1.524,33.759,33.759,0,0,0-4.209,44.763l-2.431,2.524a2.682,2.682,0,0,0-2.646.729l-17.519,18.2a2.934,2.934,0,0,0-.7,2.748L44.2,121.3a4.4,4.4,0,0,0,0,6.063l.972-1.014-.968,1.014a4.02,4.02,0,0,0,5.834,0l1.247-1.291a2.616,2.616,0,0,0,2.646-.729l17.519-18.193a2.934,2.934,0,0,0,.7-2.753l2.431-2.524a30.824,30.824,0,0,0,43.1-4.36,33.785,33.785,0,0,0-1.441-44.94ZM48.1,125.358a1.366,1.366,0,0,1-1.945,0h0a1.468,1.468,0,0,1,0-2.014l.972-1.019,1.949,2.024Zm3.894-2.019-1.949-2.024L48.1,119.3h0l13.626-14.154,3.894,4.043Zm15.593-16.192L63.689,103.1l1.949-2.024h0l1.945,2.024,1.949,2.024Zm2.921-5.053-.977-1.01-1-.991,2-2.076c.312.352.6.719.917,1.062s.683.638,1.023.953Zm34.4,1.429a28.205,28.205,0,0,1-33.389-8.689,30.926,30.926,0,0,1-1.688-35.7,28.359,28.359,0,0,1,32.408-12.044c12.178,3.835,20.506,15.492,20.509,28.707a30.039,30.039,0,0,1-17.831,27.77Z" transform="translate(-23.273 -25.123)"/><path class="a" d="M145.427,88.942a2.629,2.629,0,0,0-2.752,2.485v6.214h-2.752V86.456a2.629,2.629,0,0,0-2.752-2.485h-4.128a2.629,2.629,0,0,0-2.752,2.485V97.641h-2.752V81.485A2.629,2.629,0,0,0,124.789,79h-4.128a2.629,2.629,0,0,0-2.752,2.485v17.4a1.314,1.314,0,0,0,1.376,1.243h31.645a1.314,1.314,0,0,0,1.376-1.243V91.427a2.629,2.629,0,0,0-2.752-2.485Zm-20.638,8.7h-4.128V81.485h4.128Zm12.383,0h-4.128V86.456h4.128Zm12.383,0h-4.128V91.427h4.128Z" transform="translate(-63.832 -42.171)"/><path class="a" d="M180.662,136h-1.376a1.249,1.249,0,1,0,0,2.485h1.376a1.249,1.249,0,1,0,0-2.485Z" transform="translate(-96.315 -73.823)"/><path class="a" d="M153.672,136H152.3a1.249,1.249,0,1,0,0,2.485h1.376a1.249,1.249,0,1,0,0-2.485Z" transform="translate(-81.703 -73.823)"/><path class="a" d="M126.692,136h-1.376a1.249,1.249,0,1,0,0,2.485h1.376a1.249,1.249,0,1,0,0-2.485Z" transform="translate(-67.096 -73.823)"/></g></svg>