<svg xmlns="http://www.w3.org/2000/svg" width="21" height="17.063" viewBox="0 0 21 17.063"><g transform="translate(2 -48)"><g transform="translate(-2 48)"><path d="M21,50.02a8.976,8.976,0,0,1-2.481.68,4.281,4.281,0,0,0,1.894-2.38,8.6,8.6,0,0,1-2.73,1.042,4.3,4.3,0,0,0-7.447,2.944,4.433,4.433,0,0,0,.1.982,12.186,12.186,0,0,1-8.874-4.5,4.306,4.306,0,0,0,1.323,5.754,4.252,4.252,0,0,1-1.945-.53v.047a4.325,4.325,0,0,0,3.449,4.23,4.3,4.3,0,0,1-1.129.142,3.807,3.807,0,0,1-.815-.074,4.346,4.346,0,0,0,4.023,3A8.65,8.65,0,0,1,1.03,63.19,8.064,8.064,0,0,1,0,63.131a12.12,12.12,0,0,0,6.6,1.932A12.169,12.169,0,0,0,18.858,52.812c0-.19-.007-.374-.016-.557A8.589,8.589,0,0,0,21,50.02Z" transform="translate(0 -48)"/></g></g></svg>