<svg xmlns="http://www.w3.org/2000/svg" width="15" height="15" viewBox="0 0 15 15"><defs><style>.a{fill:#242128;}</style></defs><g transform="translate(-0.001)"><g transform="translate(0.001)"><path class="a" d="M7.5,0A7.5,7.5,0,1,0,15,7.5,7.5,7.5,0,0,0,7.5,0Zm.023,11.038H4.274C4.274,8.7,6.332,8.7,6.789,8.083L6.841,7.8A2.239,2.239,0,0,1,5.746,5.778,2.007,2.007,0,0,1,7.5,3.591,2.007,2.007,0,0,1,9.255,5.778,2.247,2.247,0,0,1,8.178,7.8l.06.317c.5.583,2.49.621,2.49,2.924Z" transform="translate(-0.001)"/></g></g></svg>