<svg xmlns="http://www.w3.org/2000/svg" width="13" height="13" viewBox="0 0 13 13"><defs>
<style>.a{fill:#242128;}</style>
</defs>

<g transform="translate(-0.001)"><g transform="translate(0.001)"><path class="a" d="M6.5,0A6.5,6.5,0,1,0,13,6.5,6.5,6.5,0,0,0,6.5,0Zm.02,9.567H3.7c0-2.03,1.783-2.03,2.179-2.561l.045-.242A1.941,1.941,0,0,1,4.98,5.008,1.739,1.739,0,0,1,6.5,3.113a1.739,1.739,0,0,1,1.521,1.9,1.947,1.947,0,0,1-.934,1.749l.052.275C7.573,7.537,9.3,7.57,9.3,9.567Z" transform="translate(-0.001)"/></g></g></svg>